<?xml version="1.0" encoding="UTF-8"?>
<!DOCTYPE svg PUBLIC "-//W3C//DTD SVG 1.1//EN" "http://www.w3.org/Graphics/SVG/1.1/DTD/svg11.dtd">
<svg xmlns="http://www.w3.org/2000/svg" version="1.1" width="360px" height="98px" style="shape-rendering:geometricPrecision; text-rendering:geometricPrecision; image-rendering:optimizeQuality; fill-rule:evenodd; clip-rule:evenodd" xmlns:xlink="http://www.w3.org/1999/xlink">
<g><path style="opacity:1" fill="#f6f7f8" d="M -0.5,-0.5 C 29.8333,-0.5 60.1667,-0.5 90.5,-0.5C 90.477,1.92668 89.977,4.26001 89,6.5C 88.089,3.36696 86.2556,2.36696 83.5,3.5C 82.5,2.83333 81.5,2.16667 80.5,1.5C 78.1647,4.1662 76.3314,7.1662 75,10.5C 73.0748,11.8804 71.2415,13.3804 69.5,15C 71.433,15.2511 73.2663,15.7511 75,16.5C 76.093,14.6508 77.4263,12.9842 79,11.5C 79.3333,11.8333 79.6667,12.1667 80,12.5C 80.4244,10.3855 81.5911,9.55215 83.5,10C 84.6105,12.7372 84.7772,15.5706 84,18.5C 82.4878,17.7433 81.1545,16.7433 80,15.5C 79.5065,17.1341 79.3398,18.8008 79.5,20.5C 78.5,20.5 77.5,20.5 76.5,20.5C 76.2965,22.3904 76.9632,23.8904 78.5,25C 76.9739,26.8871 74.9739,27.8871 72.5,28C 74.3187,28.7403 75.6521,29.9069 76.5,31.5C 75.8333,31.1667 75.1667,30.8333 74.5,30.5C 73.391,30.4431 72.391,30.1098 71.5,29.5C 70.4097,28.1429 69.0764,27.1429 67.5,26.5C 67.3893,25.8826 67.056,25.3826 66.5,25C 57.6567,24.1764 48.9901,24.3431 40.5,25.5C 40.5,43.5 40.5,61.5 40.5,79.5C 44.5,79.5 48.5,79.5 52.5,79.5C 53.4896,73.69 53.8229,67.69 53.5,61.5C 56.5184,61.6646 59.5184,61.498 62.5,61C 63.9423,60.6232 64.9423,59.7899 65.5,58.5C 68.3263,58.0023 70.6597,56.6689 72.5,54.5C 73.1667,54.5 73.8333,54.5 74.5,54.5C 74.0472,55.4584 73.3805,56.2917 72.5,57C 74.0814,58.828 75.4147,60.828 76.5,63C 77.448,63.4828 78.448,63.6495 79.5,63.5C 78.3183,66.8062 77.485,70.1395 77,73.5C 77.3076,74.3081 77.8076,74.9747 78.5,75.5C 80.0026,74.9478 81.6693,74.9478 83.5,75.5C 83.17,57.992 83.5033,40.6586 84.5,23.5C 84.5,42.1667 84.5,60.8333 84.5,79.5C 88.5,79.5 92.5,79.5 96.5,79.5C 96.5,60.8333 96.5,42.1667 96.5,23.5C 97.4969,41.9925 97.8302,60.6592 97.5,79.5C 98.5,79.5 99.5,79.5 100.5,79.5C 100.567,77.5992 100.233,75.7659 99.5,74C 99.8361,72.9701 100.503,72.4701 101.5,72.5C 102.468,74.6074 102.802,76.9407 102.5,79.5C 104.292,79.634 105.958,79.3007 107.5,78.5C 112.081,79.6068 116.748,79.7734 121.5,79C 123.693,75.6764 125.026,75.8431 125.5,79.5C 126.5,79.5 127.5,79.5 128.5,79.5C 131.167,79.5 133.833,79.5 136.5,79.5C 137.658,70.3425 137.824,61.0092 137,51.5C 136.8,49.6803 135.966,48.347 134.5,47.5C 133.614,43.963 131.281,42.2963 127.5,42.5C 127.167,42.5 126.833,42.5 126.5,42.5C 124.359,41.8367 122.025,41.5034 119.5,41.5C 115.859,41.3148 112.526,41.9814 109.5,43.5C 108.833,43.5 108.167,43.5 107.5,43.5C 108.739,41.2989 110.072,39.1322 111.5,37C 117.622,34.5018 123.455,35.0018 129,38.5C 132.188,38.3753 135.355,38.2086 138.5,38C 139.249,39.7337 139.749,41.567 140,43.5C 140.689,44.3567 141.522,45.0233 142.5,45.5C 146.16,42.6822 149.493,39.5155 152.5,36C 151.643,35.3109 150.977,34.4776 150.5,33.5C 152.396,32.5344 154.396,32.2011 156.5,32.5C 154.693,36.5242 155.859,37.8576 160,36.5C 160.75,37.1258 161.584,37.6258 162.5,38C 160.03,39.0214 157.696,40.1881 155.5,41.5C 154.5,42.1667 153.5,42.8333 152.5,43.5C 151.147,44.5261 150.147,45.8595 149.5,47.5C 148.504,47.4142 147.671,47.7476 147,48.5C 143.827,54.7954 142.827,61.462 144,68.5C 144.66,70.3237 145.827,71.657 147.5,72.5C 148.5,73.8333 149.5,75.1667 150.5,76.5C 151.895,78.3794 153.895,79.3794 156.5,79.5C 160.833,79.5 165.167,79.5 169.5,79.5C 171.17,79.2488 172.67,78.5822 174,77.5C 174.498,74.1832 174.665,70.8499 174.5,67.5C 169.114,68.6611 163.78,68.6611 158.5,67.5C 156.857,63.7047 156.191,59.7047 156.5,55.5C 156.833,54.8333 157.167,54.1667 157.5,53.5C 163.492,52.2258 169.492,52.2258 175.5,53.5C 175.815,49.6286 175.482,45.9619 174.5,42.5C 174.5,41.5 174.5,40.5 174.5,39.5C 171.14,39.6159 167.807,39.9492 164.5,40.5C 164.178,38.2776 164.845,36.4443 166.5,35C 170.298,33.335 174.131,32.835 178,33.5C 178.464,32.9056 178.631,32.2389 178.5,31.5C 179.167,31.5 179.833,31.5 180.5,31.5C 180.833,31.5 181.167,31.5 181.5,31.5C 181.953,32.4584 182.619,33.2917 183.5,34C 188.69,35.8049 192.024,34.1382 193.5,29C 193.361,27.699 192.695,26.8656 191.5,26.5C 191.5,26.1667 191.5,25.8333 191.5,25.5C 191.5,24.1667 190.833,23.5 189.5,23.5C 185.967,22.2854 182.301,22.2854 178.5,23.5C 174.513,21.2629 174.513,18.7629 178.5,16C 176.015,14.7773 175.848,13.2773 178,11.5C 178.667,12.8333 179.333,12.8333 180,11.5C 179.621,9.925 179.788,8.425 180.5,7C 178.533,4.56412 176.866,2.06412 175.5,-0.5C 195.167,-0.5 214.833,-0.5 234.5,-0.5C 233.969,1.54408 232.802,3.21075 231,4.5C 230.305,7.99635 230.805,11.3297 232.5,14.5C 232,14.8333 231.5,15.1667 231,15.5C 227.139,12.214 222.639,8.88068 217.5,5.5C 209.708,8.21716 208.041,12.8838 212.5,19.5C 215.208,17.5643 218.208,17.0643 221.5,18C 222.973,18.7096 223.64,19.8762 223.5,21.5C 220.08,20.189 216.747,20.3557 213.5,22C 218.155,22.4992 222.821,22.6658 227.5,22.5C 227.051,20.0225 227.717,18.0225 229.5,16.5C 231.984,18.5357 232.984,21.2023 232.5,24.5C 231.178,24.67 230.011,24.3366 229,23.5C 228.057,26.2507 227.224,28.9174 226.5,31.5C 226.5,28.8333 226.5,26.1667 226.5,23.5C 222.154,23.3343 217.821,23.501 213.5,24C 211.563,24.1216 210.23,24.955 209.5,26.5C 209.5,27.1667 209.167,27.5 208.5,27.5C 207.292,28.2341 205.959,28.5674 204.5,28.5C 203.705,32.7853 203.372,37.1186 203.5,41.5C 200.833,41.5 198.167,41.5 195.5,41.5C 194.833,37.5 194.167,37.5 193.5,41.5C 188.968,41.1818 184.634,41.5151 180.5,42.5C 179.854,55.212 180.52,67.5453 182.5,79.5C 185.5,79.5 188.5,79.5 191.5,79.5C 191.833,79.5 192.167,79.5 192.5,79.5C 193.495,67.3446 193.829,55.0113 193.5,42.5C 194.822,42.33 195.989,42.6634 197,43.5C 197.186,46.0356 197.686,48.369 198.5,50.5C 198.5,51.1667 198.833,51.5 199.5,51.5C 200.568,52.4345 201.901,52.7678 203.5,52.5C 203.5,61.5 203.5,70.5 203.5,79.5C 201.801,79.3398 200.134,79.5065 198.5,80C 197.167,80.6667 197.167,81.3333 198.5,82C 197.5,83 196.5,84 195.5,85C 192.891,84.4717 190.225,84.805 187.5,86C 189.78,86.2117 191.78,87.0451 193.5,88.5C 195.021,88.1203 196.687,87.9536 198.5,88C 198.167,87.6667 197.833,87.3333 197.5,87C 199.23,85.1476 200.396,85.3143 201,87.5C 202.049,86.4829 203.216,86.3162 204.5,87C 206.019,88.3513 207.352,89.8513 208.5,91.5C 211.82,89.9089 213.986,90.9089 215,94.5C 215.333,94.1667 215.667,93.8333 216,93.5C 218.016,94.7473 219.849,96.0806 221.5,97.5C 147.5,97.5 73.5,97.5 -0.5,97.5C -0.5,64.8333 -0.5,32.1667 -0.5,-0.5 Z"/></g>
<g><path style="opacity:1" fill="#f7f8f7" d="M 90.5,-0.5 C 118.833,-0.5 147.167,-0.5 175.5,-0.5C 176.866,2.06412 178.533,4.56412 180.5,7C 179.788,8.425 179.621,9.925 180,11.5C 179.333,12.8333 178.667,12.8333 178,11.5C 175.848,13.2773 176.015,14.7773 178.5,16C 174.513,18.7629 174.513,21.2629 178.5,23.5C 178.5,26.1667 178.5,28.8333 178.5,31.5C 178.631,32.2389 178.464,32.9056 178,33.5C 174.131,32.835 170.298,33.335 166.5,35C 164.845,36.4443 164.178,38.2776 164.5,40.5C 167.807,39.9492 171.14,39.6159 174.5,39.5C 174.5,40.5 174.5,41.5 174.5,42.5C 168.211,41.6279 161.878,41.2946 155.5,41.5C 157.696,40.1881 160.03,39.0214 162.5,38C 161.584,37.6258 160.75,37.1258 160,36.5C 155.859,37.8576 154.693,36.5242 156.5,32.5C 154.396,32.2011 152.396,32.5344 150.5,33.5C 150.977,34.4776 151.643,35.3109 152.5,36C 149.493,39.5155 146.16,42.6822 142.5,45.5C 141.522,45.0233 140.689,44.3567 140,43.5C 139.749,41.567 139.249,39.7337 138.5,38C 135.355,38.2086 132.188,38.3753 129,38.5C 123.455,35.0018 117.622,34.5018 111.5,37C 110.072,39.1322 108.739,41.2989 107.5,43.5C 106.223,44.6936 105.556,46.3603 105.5,48.5C 105.507,50.3693 105.84,52.036 106.5,53.5C 106.611,54.1174 106.944,54.6174 107.5,55C 105.333,56.5 103.5,58.3333 102,60.5C 101.501,64.4862 101.334,68.4862 101.5,72.5C 100.503,72.4701 99.8361,72.9701 99.5,74C 100.233,75.7659 100.567,77.5992 100.5,79.5C 99.5,79.5 98.5,79.5 97.5,79.5C 97.8302,60.6592 97.4969,41.9925 96.5,23.5C 92.5,23.5 88.5,23.5 84.5,23.5C 83.5033,40.6586 83.17,57.992 83.5,75.5C 81.6693,74.9478 80.0026,74.9478 78.5,75.5C 77.8076,74.9747 77.3076,74.3081 77,73.5C 77.485,70.1395 78.3183,66.8062 79.5,63.5C 78.448,63.6495 77.448,63.4828 76.5,63C 75.4147,60.828 74.0814,58.828 72.5,57C 73.3805,56.2917 74.0472,55.4584 74.5,54.5C 76.2503,53.3406 77.2503,51.674 77.5,49.5C 79.1018,43.3377 78.7685,37.3377 76.5,31.5C 75.6521,29.9069 74.3187,28.7403 72.5,28C 74.9739,27.8871 76.9739,26.8871 78.5,25C 76.9632,23.8904 76.2965,22.3904 76.5,20.5C 77.5,20.5 78.5,20.5 79.5,20.5C 79.3398,18.8008 79.5065,17.1341 80,15.5C 81.1545,16.7433 82.4878,17.7433 84,18.5C 84.7772,15.5706 84.6105,12.7372 83.5,10C 81.5911,9.55215 80.4244,10.3855 80,12.5C 79.6667,12.1667 79.3333,11.8333 79,11.5C 77.4263,12.9842 76.093,14.6508 75,16.5C 73.2663,15.7511 71.433,15.2511 69.5,15C 71.2415,13.3804 73.0748,11.8804 75,10.5C 76.3314,7.1662 78.1647,4.1662 80.5,1.5C 81.5,2.16667 82.5,2.83333 83.5,3.5C 86.2556,2.36696 88.089,3.36696 89,6.5C 89.977,4.26001 90.477,1.92668 90.5,-0.5 Z"/></g>
<g><path style="opacity:1" fill="#f7f8f7" d="M 234.5,-0.5 C 268.167,-0.5 301.833,-0.5 335.5,-0.5C 335.071,3.45869 336.071,6.95869 338.5,10C 343.541,8.18269 347.708,9.34936 351,13.5C 351.667,15.1667 351.667,16.8333 351,18.5C 346.106,21.3394 343.939,25.6728 344.5,31.5C 343.5,31.5 342.5,31.5 341.5,31.5C 341.666,36.8437 341.499,42.1771 341,47.5C 340.768,48.7375 340.268,49.7375 339.5,50.5C 339.774,42.131 339.44,33.7977 338.5,25.5C 339.054,23.3717 340.387,21.8717 342.5,21C 341.253,19.5421 341.253,18.0421 342.5,16.5C 338.845,14.9982 335.511,15.4982 332.5,18C 333.609,19.813 332.942,20.6463 330.5,20.5C 330.5,21.5 330.5,22.5 330.5,23.5C 328.473,23.3379 326.473,23.5045 324.5,24C 323.944,24.3826 323.611,24.8826 323.5,25.5C 323.167,25.5 322.833,25.5 322.5,25.5C 317.495,22.6646 312.495,19.8313 307.5,17C 308.406,15.3005 308.739,13.4672 308.5,11.5C 304.685,11.2818 301.352,12.2818 298.5,14.5C 293.868,15.3283 289.202,15.8283 284.5,16C 286.607,17.2635 287.607,19.0968 287.5,21.5C 289.06,21.5191 290.56,21.8524 292,22.5C 292.5,22.1667 293,21.8333 293.5,21.5C 290.691,18.5738 291.524,17.2405 296,17.5C 299.219,18.1551 302.386,18.9885 305.5,20C 307.695,22.1878 310.195,24.0211 313,25.5C 313.138,27.4324 312.638,29.2657 311.5,31C 314.862,36.3323 315.196,41.8323 312.5,47.5C 312.302,44.2148 310.635,42.5482 307.5,42.5C 307.82,36.8379 307.153,31.3379 305.5,26C 298.445,25.077 291.445,23.9103 284.5,22.5C 284.773,20.0418 283.773,18.3751 281.5,17.5C 278.841,16.8445 276.008,16.8445 273,17.5C 270.674,15.5512 268.174,15.2178 265.5,16.5C 266.691,19.1008 268.691,20.7675 271.5,21.5C 274.788,22.4453 278.121,23.112 281.5,23.5C 281.425,26.2062 281.092,28.8728 280.5,31.5C 279.624,31.3691 278.957,31.7025 278.5,32.5C 280.501,36.7268 279.501,39.8935 275.5,42C 276.428,42.3879 277.095,43.0546 277.5,44C 276.144,45.5671 275.477,47.4004 275.5,49.5C 274.116,53.3359 273.116,57.3359 272.5,61.5C 272.672,62.4916 272.338,63.1583 271.5,63.5C 268.597,61.4487 267.93,58.782 269.5,55.5C 267.498,52.826 266.498,49.826 266.5,46.5C 266.5,44.8333 266.5,43.1667 266.5,41.5C 262.486,41.3345 258.486,41.5012 254.5,42C 253.929,43.2051 253.262,44.3717 252.5,45.5C 251.742,44.1886 250.742,43.6886 249.5,44C 249.429,48.7171 249.262,53.5504 249,58.5C 248.085,59.3279 247.419,60.3279 247,61.5C 246.617,60.944 246.117,60.6107 245.5,60.5C 245.5,59.5 245.5,58.5 245.5,57.5C 244.001,52.0149 242.668,46.5149 241.5,41C 233.918,41.4304 226.251,41.5971 218.5,41.5C 218.5,38.8333 218.5,36.1667 218.5,33.5C 221.533,33.8685 224.2,33.2018 226.5,31.5C 227.224,28.9174 228.057,26.2507 229,23.5C 230.011,24.3366 231.178,24.67 232.5,24.5C 232.984,21.2023 231.984,18.5357 229.5,16.5C 227.717,18.0225 227.051,20.0225 227.5,22.5C 222.821,22.6658 218.155,22.4992 213.5,22C 216.747,20.3557 220.08,20.189 223.5,21.5C 223.64,19.8762 222.973,18.7096 221.5,18C 218.208,17.0643 215.208,17.5643 212.5,19.5C 208.041,12.8838 209.708,8.21716 217.5,5.5C 222.639,8.88068 227.139,12.214 231,15.5C 231.5,15.1667 232,14.8333 232.5,14.5C 230.805,11.3297 230.305,7.99635 231,4.5C 232.802,3.21075 233.969,1.54408 234.5,-0.5 Z"/></g>
<g><path style="opacity:1" fill="#f7f7f7" d="M 335.5,-0.5 C 343.5,-0.5 351.5,-0.5 359.5,-0.5C 359.5,32.1667 359.5,64.8333 359.5,97.5C 313.5,97.5 267.5,97.5 221.5,97.5C 219.849,96.0806 218.016,94.7473 216,93.5C 215.667,93.8333 215.333,94.1667 215,94.5C 213.986,90.9089 211.82,89.9089 208.5,91.5C 207.352,89.8513 206.019,88.3513 204.5,87C 203.216,86.3162 202.049,86.4829 201,87.5C 200.396,85.3143 199.23,85.1476 197.5,87C 197.833,87.3333 198.167,87.6667 198.5,88C 196.687,87.9536 195.021,88.1203 193.5,88.5C 191.78,87.0451 189.78,86.2117 187.5,86C 190.225,84.805 192.891,84.4717 195.5,85C 196.5,84 197.5,83 198.5,82C 197.167,81.3333 197.167,80.6667 198.5,80C 200.134,79.5065 201.801,79.3398 203.5,79.5C 203.833,79.5 204.167,79.5 204.5,79.5C 208.167,79.5 211.833,79.5 215.5,79.5C 215.833,79.5 216.167,79.5 216.5,79.5C 217.167,79.5 217.833,79.5 218.5,79.5C 219.5,79.5 220.5,79.5 221.5,79.5C 221.598,82.9606 220.932,86.2939 219.5,89.5C 220.834,91.9952 222.834,93.1619 225.5,93C 224.308,91.0548 224.308,89.0548 225.5,87C 224.176,81.3162 222.176,75.9828 219.5,71C 220.32,68.8462 221.82,67.3462 224,66.5C 225.956,66.7845 228.123,66.7845 230.5,66.5C 230.5,67.8333 230.5,69.1667 230.5,70.5C 229.5,70.5 228.5,70.5 227.5,70.5C 227.278,73.3903 227.945,76.057 229.5,78.5C 227.833,79.5 226.5,80.8333 225.5,82.5C 227.332,83.0568 228.665,84.0568 229.5,85.5C 228.833,85.5 228.5,85.8333 228.5,86.5C 228.5,89.5 228.5,92.5 228.5,95.5C 232.5,95.5 236.5,95.5 240.5,95.5C 243.362,94.7529 245.362,93.0862 246.5,90.5C 247.906,90.0269 248.573,89.0269 248.5,87.5C 250.343,86.754 251.676,85.4206 252.5,83.5C 253.38,80.3871 254.38,77.3871 255.5,74.5C 256.5,74.5 257.5,74.5 258.5,74.5C 258.5,71.5 258.5,68.5 258.5,65.5C 260.124,65.3601 261.29,66.0267 262,67.5C 261.595,71.1206 261.595,74.7872 262,78.5C 262.925,79.0465 263.758,79.7132 264.5,80.5C 261.622,82.1059 258.622,83.4392 255.5,84.5C 258.982,86.4868 261.982,88.9868 264.5,92C 272.167,92.6667 279.833,92.6667 287.5,92C 293.819,91.2465 294.819,88.7465 290.5,84.5C 289.158,85.9023 288.324,85.5689 288,83.5C 286.534,85.3249 284.701,85.8249 282.5,85C 283.061,83.4345 282.394,82.1011 280.5,81C 281.444,78.2809 281.777,75.4475 281.5,72.5C 281.5,72.1667 281.5,71.8333 281.5,71.5C 282.404,70.791 282.737,69.791 282.5,68.5C 284.167,68.5 285.833,68.5 287.5,68.5C 287.5,69.8333 287.5,71.1667 287.5,72.5C 288.5,72.5 289.5,72.5 290.5,72.5C 290.5,73.5 290.5,74.5 290.5,75.5C 289.5,75.5 288.5,75.5 287.5,75.5C 287.5,76.8333 287.5,78.1667 287.5,79.5C 290.466,79.8897 293.132,79.223 295.5,77.5C 297.291,79.0208 298.624,80.8542 299.5,83C 301.874,85.0652 304.04,84.8985 306,82.5C 310.235,84.4851 314.569,85.1518 319,84.5C 319.333,83.8333 319.667,83.1667 320,82.5C 321.718,83.8502 323.552,85.0168 325.5,86C 324.552,86.4828 323.552,86.6495 322.5,86.5C 322.5,88.1667 322.5,89.8333 322.5,91.5C 328.148,91.3298 333.648,90.9964 339,90.5C 339.617,91.4491 339.451,92.2825 338.5,93C 340.641,93.8837 342.307,93.3837 343.5,91.5C 341.528,89.5847 340.528,87.2514 340.5,84.5C 338.833,84.5 337.167,84.5 335.5,84.5C 335.5,82.8333 335.5,81.1667 335.5,79.5C 338.167,79.5 340.833,79.5 343.5,79.5C 343.485,69.5743 342.151,59.9077 339.5,50.5C 340.268,49.7375 340.768,48.7375 341,47.5C 341.499,42.1771 341.666,36.8437 341.5,31.5C 342.5,31.5 343.5,31.5 344.5,31.5C 343.939,25.6728 346.106,21.3394 351,18.5C 351.667,16.8333 351.667,15.1667 351,13.5C 347.708,9.34936 343.541,8.18269 338.5,10C 336.071,6.95869 335.071,3.45869 335.5,-0.5 Z"/></g>
<g><path style="opacity:1" fill="#e5dff6" d="M 189.5,23.5 C 183.063,22.4045 180.063,25.0712 180.5,31.5C 179.833,31.5 179.167,31.5 178.5,31.5C 178.5,28.8333 178.5,26.1667 178.5,23.5C 182.301,22.2854 185.967,22.2854 189.5,23.5 Z"/></g>
<g><path style="opacity:1" fill="#cecdf2" d="M 40.5,25.5 C 48.9901,24.3431 57.6567,24.1764 66.5,25C 67.056,25.3826 67.3893,25.8826 67.5,26.5C 66.8333,26.5 66.1667,26.5 65.5,26.5C 57.3501,25.5073 49.0168,25.1739 40.5,25.5 Z"/></g>
<g><path style="opacity:1" fill="#9b98dd" d="M 226.5,31.5 C 224.2,33.2018 221.533,33.8685 218.5,33.5C 217.523,36.2869 217.19,39.2869 217.5,42.5C 217.167,42.5 216.833,42.5 216.5,42.5C 216.167,42.5 215.833,42.5 215.5,42.5C 215.184,39.0217 215.684,35.6883 217,32.5C 218.356,31.6198 219.856,31.2865 221.5,31.5C 222.5,31.5 223.5,31.5 224.5,31.5C 224.5,29.1667 224.5,26.8333 224.5,24.5C 220.958,24.1872 217.625,24.5206 214.5,25.5C 212.708,25.366 211.042,25.6993 209.5,26.5C 210.23,24.955 211.563,24.1216 213.5,24C 217.821,23.501 222.154,23.3343 226.5,23.5C 226.5,26.1667 226.5,28.8333 226.5,31.5 Z"/></g>
<g><path style="opacity:1" fill="#8074ba" d="M 189.5,23.5 C 190.833,23.5 191.5,24.1667 191.5,25.5C 185.332,23.0914 181.999,25.0914 181.5,31.5C 181.167,31.5 180.833,31.5 180.5,31.5C 180.063,25.0712 183.063,22.4045 189.5,23.5 Z"/></g>
<g><path style="opacity:1" fill="#6b5bba" d="M 214.5,25.5 C 211.866,26.1334 210.2,27.8001 209.5,30.5C 208.833,30.5 208.167,30.5 207.5,30.5C 208.11,29.609 208.443,28.609 208.5,27.5C 209.167,27.5 209.5,27.1667 209.5,26.5C 211.042,25.6993 212.708,25.366 214.5,25.5 Z"/></g>
<g><path style="opacity:1" fill="#5047ca" d="M 221.5,31.5 C 221.414,30.5041 221.748,29.6708 222.5,29C 219.812,28.6076 217.145,28.1076 214.5,27.5C 212.577,28.0924 210.911,29.0924 209.5,30.5C 210.2,27.8001 211.866,26.1334 214.5,25.5C 217.625,24.5206 220.958,24.1872 224.5,24.5C 224.5,26.8333 224.5,29.1667 224.5,31.5C 223.5,31.5 222.5,31.5 221.5,31.5 Z"/></g>
<g><path style="opacity:1" fill="#4e46d7" d="M 47.5,26.5 C 53.5,26.5 59.5,26.5 65.5,26.5C 67.0326,28.2451 69.0326,29.2451 71.5,29.5C 72.391,30.1098 73.391,30.4431 74.5,30.5C 76.3647,36.5882 77.0314,42.9216 76.5,49.5C 74.8173,50.8534 73.4839,52.5201 72.5,54.5C 72.1667,54.5 71.8333,54.5 71.5,54.5C 71.6771,50.1478 72.6771,45.9811 74.5,42C 72.6513,39.5259 71.6513,37.0259 71.5,34.5C 69.6675,33.7515 68.0009,32.7515 66.5,31.5C 65.5481,33.0453 65.2148,34.712 65.5,36.5C 65.1667,36.5 64.8333,36.5 64.5,36.5C 64.0269,35.0937 63.0269,34.427 61.5,34.5C 58.4355,33.1816 55.2688,33.1816 52,34.5C 51.5006,40.1569 51.3339,45.8236 51.5,51.5C 49.8283,46.8685 48.6616,41.8685 48,36.5C 47.5017,33.1832 47.335,29.8499 47.5,26.5 Z"/></g>
<g><path style="opacity:1" fill="#7b76c6" d="M 65.5,26.5 C 66.1667,26.5 66.8333,26.5 67.5,26.5C 69.0764,27.1429 70.4097,28.1429 71.5,29.5C 69.0326,29.2451 67.0326,28.2451 65.5,26.5 Z"/></g>
<g><path style="opacity:1" fill="#5045c4" d="M 191.5,25.5 C 191.5,25.8333 191.5,26.1667 191.5,26.5C 191.254,29.8052 189.587,32.1386 186.5,33.5C 184.962,33.5466 183.962,32.8799 183.5,31.5C 182.833,31.5 182.167,31.5 181.5,31.5C 181.999,25.0914 185.332,23.0914 191.5,25.5 Z"/></g>
<g><path style="opacity:1" fill="#5640e9" d="M 183.5,31.5 C 182.737,27.8622 184.07,26.3622 187.5,27C 189.009,30.6693 187.676,32.1693 183.5,31.5 Z"/></g>
<g><path style="opacity:1" fill="#706fbc" d="M 191.5,26.5 C 192.695,26.8656 193.361,27.699 193.5,29C 192.024,34.1382 188.69,35.8049 183.5,34C 182.619,33.2917 181.953,32.4584 181.5,31.5C 182.167,31.5 182.833,31.5 183.5,31.5C 183.962,32.8799 184.962,33.5466 186.5,33.5C 189.587,32.1386 191.254,29.8052 191.5,26.5 Z"/></g>
<g><path style="opacity:1" fill="#dccbf9" d="M 322.5,25.5 C 322.833,25.5 323.167,25.5 323.5,25.5C 323.833,25.5 324.167,25.5 324.5,25.5C 324.5,43.5 324.5,61.5 324.5,79.5C 323.508,79.6716 322.842,79.3382 322.5,78.5C 322.5,62.1667 322.5,45.8333 322.5,29.5C 322.5,28.1667 322.5,26.8333 322.5,25.5 Z"/></g>
<g><path style="opacity:1" fill="#eaf3f9" d="M 339.5,50.5 C 342.151,59.9077 343.485,69.5743 343.5,79.5C 340.833,79.5 338.167,79.5 335.5,79.5C 335.5,61.5 335.5,43.5 335.5,25.5C 331.833,25.5 328.167,25.5 324.5,25.5C 324.167,25.5 323.833,25.5 323.5,25.5C 323.611,24.8826 323.944,24.3826 324.5,24C 326.473,23.5045 328.473,23.3379 330.5,23.5C 330.5,22.5 330.5,21.5 330.5,20.5C 332.942,20.6463 333.609,19.813 332.5,18C 335.511,15.4982 338.845,14.9982 342.5,16.5C 341.253,18.0421 341.253,19.5421 342.5,21C 340.387,21.8717 339.054,23.3717 338.5,25.5C 339.44,33.7977 339.774,42.131 339.5,50.5 Z"/></g>
<g><path style="opacity:1" fill="#eae1f8" d="M 284.5,26.5 C 284.5,27.5 284.5,28.5 284.5,29.5C 283.566,30.5676 283.232,31.901 283.5,33.5C 281.345,35.6174 280.345,38.284 280.5,41.5C 280.5,41.8333 280.5,42.1667 280.5,42.5C 278.787,43.6354 278.12,45.302 278.5,47.5C 277.222,47.7822 276.222,48.4489 275.5,49.5C 275.477,47.4004 276.144,45.5671 277.5,44C 277.095,43.0546 276.428,42.3879 275.5,42C 279.501,39.8935 280.501,36.7268 278.5,32.5C 278.957,31.7025 279.624,31.3691 280.5,31.5C 281.833,29.8333 283.167,28.1667 284.5,26.5 Z"/></g>
<g><path style="opacity:1" fill="#4b49c7" d="M 287.5,27.5 C 291.298,26.5166 295.298,26.1832 299.5,26.5C 299.263,27.791 299.596,28.791 300.5,29.5C 301.801,32.023 302.801,34.6897 303.5,37.5C 303.5,38.5 303.5,39.5 303.5,40.5C 302.504,40.5858 301.671,40.2524 301,39.5C 300.202,35.5142 299.035,31.6808 297.5,28C 294.183,27.5017 290.85,27.335 287.5,27.5 Z"/></g>
<g><path style="opacity:1" fill="#8371c2" d="M 283.5,33.5 C 282.871,36.3973 281.871,39.064 280.5,41.5C 280.345,38.284 281.345,35.6174 283.5,33.5 Z"/></g>
<g><path style="opacity:1" fill="#bdc4f3" d="M 300.5,29.5 C 301.458,29.9528 302.292,30.6195 303,31.5C 305.161,38.8076 307.328,46.1409 309.5,53.5C 307.621,50.9082 306.287,47.9082 305.5,44.5C 305.073,41.9902 304.407,39.6568 303.5,37.5C 302.801,34.6897 301.801,32.023 300.5,29.5 Z"/></g>
<g><path style="opacity:1" fill="#d5d6f7" d="M 208.5,27.5 C 208.443,28.609 208.11,29.609 207.5,30.5C 206.21,31.0577 205.377,32.0577 205,33.5C 204.502,36.4816 204.335,39.4816 204.5,42.5C 202.833,42.5 201.167,42.5 199.5,42.5C 198.527,44.9479 198.194,47.6146 198.5,50.5C 197.686,48.369 197.186,46.0356 197,43.5C 195.989,42.6634 194.822,42.33 193.5,42.5C 193.829,55.0113 193.495,67.3446 192.5,79.5C 192.5,67.1667 192.5,54.8333 192.5,42.5C 188.5,42.5 184.5,42.5 180.5,42.5C 184.634,41.5151 188.968,41.1818 193.5,41.5C 194.167,37.5 194.833,37.5 195.5,41.5C 198.167,41.5 200.833,41.5 203.5,41.5C 203.372,37.1186 203.705,32.7853 204.5,28.5C 205.959,28.5674 207.292,28.2341 208.5,27.5 Z"/></g>
<g><path style="opacity:1" fill="#8c7acf" d="M 207.5,30.5 C 206.314,34.503 205.314,38.503 204.5,42.5C 204.335,39.4816 204.502,36.4816 205,33.5C 205.377,32.0577 206.21,31.0577 207.5,30.5 Z"/></g>
<g><path style="opacity:1" fill="#5045de" d="M 221.5,31.5 C 219.856,31.2865 218.356,31.6198 217,32.5C 215.684,35.6883 215.184,39.0217 215.5,42.5C 215.5,45.1667 215.5,47.8333 215.5,50.5C 214.566,51.5676 214.232,52.901 214.5,54.5C 210.534,56.459 207.867,55.459 206.5,51.5C 204.858,49.9192 202.858,49.2525 200.5,49.5C 199.532,47.3926 199.198,45.0593 199.5,42.5C 201.167,42.5 202.833,42.5 204.5,42.5C 205.314,38.503 206.314,34.503 207.5,30.5C 208.167,30.5 208.833,30.5 209.5,30.5C 210.911,29.0924 212.577,28.0924 214.5,27.5C 217.145,28.1076 219.812,28.6076 222.5,29C 221.748,29.6708 221.414,30.5041 221.5,31.5 Z"/></g>
<g><path style="opacity:1" fill="#d8dbf8" d="M 218.5,33.5 C 218.5,36.1667 218.5,38.8333 218.5,41.5C 226.251,41.5971 233.918,41.4304 241.5,41C 242.668,46.5149 244.001,52.0149 245.5,57.5C 244.833,56.8333 244.167,56.1667 243.5,55.5C 242.975,51.467 241.642,47.8004 239.5,44.5C 239.5,44.1667 239.5,43.8333 239.5,43.5C 236.038,42.5184 232.371,42.185 228.5,42.5C 227.657,47.0943 228.991,50.7609 232.5,53.5C 232.5,54.1667 232.5,54.8333 232.5,55.5C 232.5,56.1667 232.5,56.8333 232.5,57.5C 231.501,55.6821 230.168,54.0154 228.5,52.5C 227.772,49.7875 226.939,47.1209 226,44.5C 225.667,46.8333 225.333,49.1667 225,51.5C 222.959,52.4231 220.792,52.7564 218.5,52.5C 218.5,61.5 218.5,70.5 218.5,79.5C 217.833,79.5 217.167,79.5 216.5,79.5C 216.334,70.4938 216.5,61.4938 217,52.5C 219.277,51.8828 221.444,51.2161 223.5,50.5C 224.473,48.0521 224.806,45.3854 224.5,42.5C 222.167,42.5 219.833,42.5 217.5,42.5C 217.19,39.2869 217.523,36.2869 218.5,33.5 Z"/></g>
<g><path style="opacity:1" fill="#7b6dc8" d="M 40.5,25.5 C 49.0168,25.1739 57.3501,25.5073 65.5,26.5C 59.5,26.5 53.5,26.5 47.5,26.5C 45.8333,26.5 44.1667,26.5 42.5,26.5C 41.5033,43.6586 41.17,60.992 41.5,78.5C 44.5,78.5 47.5,78.5 50.5,78.5C 51.3635,72.5451 51.6968,66.5451 51.5,60.5C 51.8333,60.5 52.1667,60.5 52.5,60.5C 52.5,66.8333 52.5,73.1667 52.5,79.5C 48.5,79.5 44.5,79.5 40.5,79.5C 40.5,61.5 40.5,43.5 40.5,25.5 Z"/></g>
<g><path style="opacity:1" fill="#cdcbf3" d="M 126.5,42.5 C 120.797,42.3748 115.13,42.7081 109.5,43.5C 112.526,41.9814 115.859,41.3148 119.5,41.5C 122.025,41.5034 124.359,41.8367 126.5,42.5 Z"/></g>
<g><path style="opacity:1" fill="#c5c7ef" d="M 127.5,42.5 C 131.281,42.2963 133.614,43.963 134.5,47.5C 133.167,46.8333 131.833,46.1667 130.5,45.5C 129.9,44.1001 128.9,43.1001 127.5,42.5 Z"/></g>
<g><path style="opacity:1" fill="#7173c0" d="M 255.5,43.5 C 258.625,42.5206 261.958,42.1872 265.5,42.5C 265.5,43.8333 265.5,45.1667 265.5,46.5C 265.445,49.6145 264.112,51.9478 261.5,53.5C 263.292,50.4541 264.292,47.1207 264.5,43.5C 261.5,43.5 258.5,43.5 255.5,43.5 Z"/></g>
<g><path style="opacity:1" fill="#787bd0" d="M 74.5,30.5 C 75.1667,30.8333 75.8333,31.1667 76.5,31.5C 78.7685,37.3377 79.1018,43.3377 77.5,49.5C 77.1667,49.5 76.8333,49.5 76.5,49.5C 77.0314,42.9216 76.3647,36.5882 74.5,30.5 Z"/></g>
<g><path style="opacity:1" fill="#e7dcf7" d="M 266.5,46.5 C 266.167,46.5 265.833,46.5 265.5,46.5C 265.5,45.1667 265.5,43.8333 265.5,42.5C 261.958,42.1872 258.625,42.5206 255.5,43.5C 254.542,45.3024 253.875,47.3024 253.5,49.5C 251.345,51.6174 250.345,54.284 250.5,57.5C 250.5,58.1667 250.5,58.8333 250.5,59.5C 248.72,60.9899 248.054,62.9899 248.5,65.5C 247.222,65.2178 246.222,64.5511 245.5,63.5C 245.5,62.5 245.5,61.5 245.5,60.5C 246.117,60.6107 246.617,60.944 247,61.5C 247.419,60.3279 248.085,59.3279 249,58.5C 249.262,53.5504 249.429,48.7171 249.5,44C 250.742,43.6886 251.742,44.1886 252.5,45.5C 253.262,44.3717 253.929,43.2051 254.5,42C 258.486,41.5012 262.486,41.3345 266.5,41.5C 266.5,43.1667 266.5,44.8333 266.5,46.5 Z"/></g>
<g><path style="opacity:1" fill="#666cc8" d="M 303.5,37.5 C 304.407,39.6568 305.073,41.9902 305.5,44.5C 305.167,44.5 304.833,44.5 304.5,44.5C 303.766,43.2921 303.433,41.9587 303.5,40.5C 303.5,39.5 303.5,38.5 303.5,37.5 Z"/></g>
<g><path style="opacity:1" fill="#4c4ad2" d="M 215.5,42.5 C 215.833,42.5 216.167,42.5 216.5,42.5C 218.607,43.4682 220.941,43.8016 223.5,43.5C 223.762,44.9778 223.429,46.3112 222.5,47.5C 220.573,48.8624 218.573,49.8624 216.5,50.5C 216.167,50.5 215.833,50.5 215.5,50.5C 215.5,47.8333 215.5,45.1667 215.5,42.5 Z"/></g>
<g><path style="opacity:1" fill="#9b80d5" d="M 280.5,42.5 C 280.204,44.403 279.537,46.0697 278.5,47.5C 278.12,45.302 278.787,43.6354 280.5,42.5 Z"/></g>
<g><path style="opacity:1" fill="#6457bd" d="M 172.5,43.5 C 172.5,43.8333 172.5,44.1667 172.5,44.5C 166.491,44.3338 160.491,44.5005 154.5,45C 153.347,46.883 151.681,47.7163 149.5,47.5C 150.147,45.8595 151.147,44.5261 152.5,43.5C 159.187,42.259 165.854,42.259 172.5,43.5 Z"/></g>
<g><path style="opacity:1" fill="#7675c4" d="M 216.5,42.5 C 216.833,42.5 217.167,42.5 217.5,42.5C 219.833,42.5 222.167,42.5 224.5,42.5C 224.806,45.3854 224.473,48.0521 223.5,50.5C 221.167,50.5 218.833,50.5 216.5,50.5C 218.573,49.8624 220.573,48.8624 222.5,47.5C 223.429,46.3112 223.762,44.9778 223.5,43.5C 220.941,43.8016 218.607,43.4682 216.5,42.5 Z"/></g>
<g><path style="opacity:1" fill="#d1c9ee" d="M 107.5,43.5 C 107.5,43.8333 107.5,44.1667 107.5,44.5C 106.2,47.0241 106.2,49.6908 107.5,52.5C 109.071,51.6906 110.738,51.3573 112.5,51.5C 110.898,53.0739 108.898,53.7406 106.5,53.5C 105.84,52.036 105.507,50.3693 105.5,48.5C 105.556,46.3603 106.223,44.6936 107.5,43.5 Z"/></g>
<g><path style="opacity:1" fill="#5a4bc1" d="M 126.5,42.5 C 126.833,42.5 127.167,42.5 127.5,42.5C 128.9,43.1001 129.9,44.1001 130.5,45.5C 123.536,44.4469 116.536,44.2803 109.5,45C 108.663,46.0113 108.33,47.1779 108.5,48.5C 110.143,48.5198 111.476,47.8532 112.5,46.5C 116.489,47.1066 120.489,47.7733 124.5,48.5C 124.863,49.1835 125.196,49.8501 125.5,50.5C 124.391,50.4431 123.391,50.1098 122.5,49.5C 121.207,48.8418 119.707,48.5085 118,48.5C 114.568,49.4164 111.068,50.083 107.5,50.5C 107.5,48.5 107.5,46.5 107.5,44.5C 107.5,44.1667 107.5,43.8333 107.5,43.5C 108.167,43.5 108.833,43.5 109.5,43.5C 115.13,42.7081 120.797,42.3748 126.5,42.5 Z"/></g>
<g><path style="opacity:1" fill="#5143df" d="M 172.5,44.5 C 172.5,45.5 172.5,46.5 172.5,47.5C 167.758,49.0428 162.758,50.0428 157.5,50.5C 156.174,51.6422 155.174,52.9755 154.5,54.5C 153.355,58.3112 153.188,62.3112 154,66.5C 154.671,67.2524 155.504,67.5858 156.5,67.5C 156.5,68.1667 156.833,68.5 157.5,68.5C 157.806,71.3854 157.473,74.0521 156.5,76.5C 155.167,76.5 153.833,76.5 152.5,76.5C 150.793,73.802 148.793,71.4687 146.5,69.5C 143.358,61.6725 144.358,54.3392 149.5,47.5C 151.681,47.7163 153.347,46.883 154.5,45C 160.491,44.5005 166.491,44.3338 172.5,44.5 Z"/></g>
<g><path style="opacity:1" fill="#837fc7" d="M 199.5,42.5 C 199.198,45.0593 199.532,47.3926 200.5,49.5C 201.5,50.1667 202.5,50.8333 203.5,51.5C 202.167,51.5 200.833,51.5 199.5,51.5C 198.833,51.5 198.5,51.1667 198.5,50.5C 198.194,47.6146 198.527,44.9479 199.5,42.5 Z"/></g>
<g><path style="opacity:1" fill="#4a44c3" d="M 172.5,47.5 C 172.5,48.5 172.5,49.5 172.5,50.5C 167.968,50.1818 163.634,50.5151 159.5,51.5C 158.833,52.1667 158.167,52.8333 157.5,53.5C 156.391,53.5569 155.391,53.8902 154.5,54.5C 155.174,52.9755 156.174,51.6422 157.5,50.5C 162.758,50.0428 167.758,49.0428 172.5,47.5 Z"/></g>
<g><path style="opacity:1" fill="#7b6fc7" d="M 107.5,44.5 C 107.5,46.5 107.5,48.5 107.5,50.5C 111.068,50.083 114.568,49.4164 118,48.5C 119.707,48.5085 121.207,48.8418 122.5,49.5C 119.813,49.3359 117.146,49.5026 114.5,50C 113.944,50.3826 113.611,50.8826 113.5,51.5C 113.167,51.5 112.833,51.5 112.5,51.5C 110.738,51.3573 109.071,51.6906 107.5,52.5C 106.2,49.6908 106.2,47.0241 107.5,44.5 Z"/></g>
<g><path style="opacity:1" fill="#b4afeb" d="M 122.5,49.5 C 123.391,50.1098 124.391,50.4431 125.5,50.5C 125.5,50.8333 125.5,51.1667 125.5,51.5C 121.472,50.3797 117.472,50.3797 113.5,51.5C 113.611,50.8826 113.944,50.3826 114.5,50C 117.146,49.5026 119.813,49.3359 122.5,49.5 Z"/></g>
<g><path style="opacity:1" fill="#7371c8" d="M 172.5,43.5 C 173.473,45.9479 173.806,48.6146 173.5,51.5C 168.833,51.5 164.167,51.5 159.5,51.5C 163.634,50.5151 167.968,50.1818 172.5,50.5C 172.5,49.5 172.5,48.5 172.5,47.5C 172.5,46.5 172.5,45.5 172.5,44.5C 172.5,44.1667 172.5,43.8333 172.5,43.5 Z"/></g>
<g><path style="opacity:1" fill="#ced6f1" d="M 155.5,41.5 C 161.878,41.2946 168.211,41.6279 174.5,42.5C 175.482,45.9619 175.815,49.6286 175.5,53.5C 169.492,52.2258 163.492,52.2258 157.5,53.5C 158.167,52.8333 158.833,52.1667 159.5,51.5C 164.167,51.5 168.833,51.5 173.5,51.5C 173.806,48.6146 173.473,45.9479 172.5,43.5C 165.854,42.259 159.187,42.259 152.5,43.5C 153.5,42.8333 154.5,42.1667 155.5,41.5 Z"/></g>
<g><path style="opacity:1" fill="#4e4ccf" d="M 255.5,43.5 C 258.5,43.5 261.5,43.5 264.5,43.5C 264.292,47.1207 263.292,50.4541 261.5,53.5C 261.5,53.8333 261.5,54.1667 261.5,54.5C 259.416,56.5764 257.749,58.9097 256.5,61.5C 255.402,60.3991 255.235,59.0657 256,57.5C 258.439,54.9902 259.939,51.9902 260.5,48.5C 259.311,47.5713 257.978,47.238 256.5,47.5C 256.5,48.8333 256.5,50.1667 256.5,51.5C 255.5,51.5 254.5,51.5 253.5,51.5C 253.5,50.8333 253.5,50.1667 253.5,49.5C 253.875,47.3024 254.542,45.3024 255.5,43.5 Z"/></g>
<g><path style="opacity:1" fill="#c0aeeb" d="M 278.5,47.5 C 276.781,52.1932 275.114,56.8598 273.5,61.5C 273.167,61.5 272.833,61.5 272.5,61.5C 273.116,57.3359 274.116,53.3359 275.5,49.5C 276.222,48.4489 277.222,47.7822 278.5,47.5 Z"/></g>
<g><path style="opacity:1" fill="#5e46d0" d="M 287.5,27.5 C 285.247,32.2927 283.414,37.2927 282,42.5C 281.278,45.2605 281.445,47.9272 282.5,50.5C 281.549,51.9187 281.216,53.5853 281.5,55.5C 280.788,54.2613 279.788,53.7613 278.5,54C 276.926,55.8259 276.093,57.9925 276,60.5C 275.292,61.3805 274.458,62.0472 273.5,62.5C 273.5,62.1667 273.5,61.8333 273.5,61.5C 275.114,56.8598 276.781,52.1932 278.5,47.5C 279.537,46.0697 280.204,44.403 280.5,42.5C 280.5,42.1667 280.5,41.8333 280.5,41.5C 281.871,39.064 282.871,36.3973 283.5,33.5C 283.232,31.901 283.566,30.5676 284.5,29.5C 285.5,28.8333 286.5,28.1667 287.5,27.5 Z"/></g>
<g><path style="opacity:1" fill="#f5f6fa" d="M 322.5,25.5 C 322.5,26.8333 322.5,28.1667 322.5,29.5C 321.325,29.281 320.325,29.6143 319.5,30.5C 320.621,36.1138 320.788,41.7805 320,47.5C 319.667,45.5 319.333,43.5 319,41.5C 318.833,43 318.667,44.5 318.5,46C 320.668,52.7532 321.001,59.5865 319.5,66.5C 320.737,70.5816 321.737,74.5816 322.5,78.5C 322.842,79.3382 323.508,79.6716 324.5,79.5C 328.167,79.5 331.833,79.5 335.5,79.5C 335.5,81.1667 335.5,82.8333 335.5,84.5C 337.167,84.5 338.833,84.5 340.5,84.5C 340.528,87.2514 341.528,89.5847 343.5,91.5C 342.307,93.3837 340.641,93.8837 338.5,93C 339.451,92.2825 339.617,91.4491 339,90.5C 333.648,90.9964 328.148,91.3298 322.5,91.5C 322.5,89.8333 322.5,88.1667 322.5,86.5C 323.552,86.6495 324.552,86.4828 325.5,86C 323.552,85.0168 321.718,83.8502 320,82.5C 319.667,83.1667 319.333,83.8333 319,84.5C 314.569,85.1518 310.235,84.4851 306,82.5C 304.04,84.8985 301.874,85.0652 299.5,83C 298.624,80.8542 297.291,79.0208 295.5,77.5C 293.132,79.223 290.466,79.8897 287.5,79.5C 287.5,78.1667 287.5,76.8333 287.5,75.5C 288.5,75.5 289.5,75.5 290.5,75.5C 290.5,74.5 290.5,73.5 290.5,72.5C 289.5,72.5 288.5,72.5 287.5,72.5C 287.5,71.1667 287.5,69.8333 287.5,68.5C 292.167,68.5 296.833,68.5 301.5,68.5C 301.232,70.099 301.566,71.4324 302.5,72.5C 303.283,74.3432 303.95,76.3432 304.5,78.5C 304.957,79.2975 305.624,79.6309 306.5,79.5C 310.167,79.5 313.833,79.5 317.5,79.5C 317.5,78.1667 317.5,76.8333 317.5,75.5C 316.94,73.1992 316.44,70.8659 316,68.5C 315.292,67.6195 314.458,66.9528 313.5,66.5C 313.5,66.1667 313.5,65.8333 313.5,65.5C 313.53,60.8992 312.197,56.8992 309.5,53.5C 307.328,46.1409 305.161,38.8076 303,31.5C 302.292,30.6195 301.458,29.9528 300.5,29.5C 300.5,28.1667 300.5,26.8333 300.5,25.5C 295.073,25.2175 289.74,25.5509 284.5,26.5C 283.167,28.1667 281.833,29.8333 280.5,31.5C 281.092,28.8728 281.425,26.2062 281.5,23.5C 278.121,23.112 274.788,22.4453 271.5,21.5C 268.691,20.7675 266.691,19.1008 265.5,16.5C 268.174,15.2178 270.674,15.5512 273,17.5C 276.008,16.8445 278.841,16.8445 281.5,17.5C 283.773,18.3751 284.773,20.0418 284.5,22.5C 291.445,23.9103 298.445,25.077 305.5,26C 307.153,31.3379 307.82,36.8379 307.5,42.5C 310.635,42.5482 312.302,44.2148 312.5,47.5C 315.196,41.8323 314.862,36.3323 311.5,31C 312.638,29.2657 313.138,27.4324 313,25.5C 310.195,24.0211 307.695,22.1878 305.5,20C 302.386,18.9885 299.219,18.1551 296,17.5C 291.524,17.2405 290.691,18.5738 293.5,21.5C 293,21.8333 292.5,22.1667 292,22.5C 290.56,21.8524 289.06,21.5191 287.5,21.5C 287.607,19.0968 286.607,17.2635 284.5,16C 289.202,15.8283 293.868,15.3283 298.5,14.5C 301.352,12.2818 304.685,11.2818 308.5,11.5C 308.739,13.4672 308.406,15.3005 307.5,17C 312.495,19.8313 317.495,22.6646 322.5,25.5 Z"/></g>
<g><path style="opacity:1" fill="#7b71c3" d="M 300.5,29.5 C 299.596,28.791 299.263,27.791 299.5,26.5C 295.298,26.1832 291.298,26.5166 287.5,27.5C 286.5,28.1667 285.5,28.8333 284.5,29.5C 284.5,28.5 284.5,27.5 284.5,26.5C 289.74,25.5509 295.073,25.2175 300.5,25.5C 300.5,26.8333 300.5,28.1667 300.5,29.5 Z"/></g>
<g><path style="opacity:1" fill="#aeb2eb" d="M 76.5,49.5 C 76.8333,49.5 77.1667,49.5 77.5,49.5C 77.2503,51.674 76.2503,53.3406 74.5,54.5C 73.8333,54.5 73.1667,54.5 72.5,54.5C 73.4839,52.5201 74.8173,50.8534 76.5,49.5 Z"/></g>
<g><path style="opacity:1" fill="#8371c5" d="M 239.5,43.5 C 236.167,43.5 232.833,43.5 229.5,43.5C 230.799,46.6838 231.799,50.0171 232.5,53.5C 228.991,50.7609 227.657,47.0943 228.5,42.5C 232.371,42.185 236.038,42.5184 239.5,43.5 Z"/></g>
<g><path style="opacity:1" fill="#7480cf" d="M 239.5,44.5 C 241.642,47.8004 242.975,51.467 243.5,55.5C 241,52.3401 239.667,48.6734 239.5,44.5 Z"/></g>
<g><path style="opacity:1" fill="#f3f7fb" d="M 293.5,41.5 C 293.5,42.1667 293.5,42.8333 293.5,43.5C 293.631,48.2236 294.964,52.5569 297.5,56.5C 293.893,57.4892 290.226,57.8226 286.5,57.5C 286.433,56.0413 286.766,54.7079 287.5,53.5C 287.5,52.8333 287.5,52.1667 287.5,51.5C 289.576,48.92 290.909,45.92 291.5,42.5C 291.957,41.7025 292.624,41.3691 293.5,41.5 Z"/></g>
<g><path style="opacity:1" fill="#937ed1" d="M 149.5,47.5 C 144.358,54.3392 143.358,61.6725 146.5,69.5C 147.11,70.391 147.443,71.391 147.5,72.5C 145.827,71.657 144.66,70.3237 144,68.5C 142.827,61.462 143.827,54.7954 147,48.5C 147.671,47.7476 148.504,47.4142 149.5,47.5 Z"/></g>
<g><path style="opacity:1" fill="#5242e4" d="M 235.5,59.5 C 234.596,58.791 234.263,57.791 234.5,56.5C 233.532,53.5547 233.366,50.5547 234,47.5C 234.71,46.0267 235.876,45.3601 237.5,45.5C 239.734,51.2317 240.734,57.2317 240.5,63.5C 239.5,63.5 238.5,63.5 237.5,63.5C 237.771,61.6203 237.104,60.287 235.5,59.5 Z"/></g>
<g><path style="opacity:1" fill="#5150ce" d="M 290.5,40.5 C 289.21,44.082 288.21,47.7487 287.5,51.5C 287.5,52.1667 287.5,52.8333 287.5,53.5C 285.744,54.5521 285.077,56.2188 285.5,58.5C 285.167,58.5 284.833,58.5 284.5,58.5C 283.272,57.6935 282.272,56.6935 281.5,55.5C 281.216,53.5853 281.549,51.9187 282.5,50.5C 283.209,51.404 284.209,51.7373 285.5,51.5C 285.273,46.9018 286.106,42.5684 288,38.5C 288.417,39.756 289.25,40.4226 290.5,40.5 Z"/></g>
<g><path style="opacity:1" fill="#cebff0" d="M 293.5,43.5 C 294.167,44.8333 294.833,46.1667 295.5,47.5C 297.318,50.8442 298.318,54.5109 298.5,58.5C 294.167,58.5 289.833,58.5 285.5,58.5C 285.077,56.2188 285.744,54.5521 287.5,53.5C 286.766,54.7079 286.433,56.0413 286.5,57.5C 290.226,57.8226 293.893,57.4892 297.5,56.5C 294.964,52.5569 293.631,48.2236 293.5,43.5 Z"/></g>
<g><path style="opacity:1" fill="#7e7bcf" d="M 71.5,54.5 C 71.8333,54.5 72.1667,54.5 72.5,54.5C 70.6597,56.6689 68.3263,58.0023 65.5,58.5C 64.8333,58.5 64.1667,58.5 63.5,58.5C 64.8333,57.8333 66.1667,57.1667 67.5,56.5C 68.8333,55.8333 70.1667,55.1667 71.5,54.5 Z"/></g>
<g><path style="opacity:1" fill="#8b80e6" d="M 125.5,54.5 C 125.5,54.8333 125.5,55.1667 125.5,55.5C 122.833,55.8333 120.167,56.1667 117.5,56.5C 119.78,54.7773 122.447,54.1107 125.5,54.5 Z"/></g>
<g><path style="opacity:1" fill="#5143e0" d="M 281.5,55.5 C 282.272,56.6935 283.272,57.6935 284.5,58.5C 287.684,60.4136 291.351,61.0803 295.5,60.5C 295.5,61.5 295.5,62.5 295.5,63.5C 292.833,63.5 290.167,63.5 287.5,63.5C 287.5,64.5 287.5,65.5 287.5,66.5C 285.265,66.2053 283.265,66.5386 281.5,67.5C 280.624,67.3691 279.957,67.7025 279.5,68.5C 278.803,73.8635 275.803,76.8635 270.5,77.5C 270.5,75.5 270.5,73.5 270.5,71.5C 272.31,68.8027 273.31,65.8027 273.5,62.5C 274.458,62.0472 275.292,61.3805 276,60.5C 276.093,57.9925 276.926,55.8259 278.5,54C 279.788,53.7613 280.788,54.2613 281.5,55.5 Z"/></g>
<g><path style="opacity:1" fill="#b4bdf3" d="M 134.5,47.5 C 135.966,48.347 136.8,49.6803 137,51.5C 137.824,61.0092 137.658,70.3425 136.5,79.5C 136.827,70.3178 136.493,61.3178 135.5,52.5C 134.699,50.9582 134.366,49.2915 134.5,47.5 Z"/></g>
<g><path style="opacity:1" fill="#a895db" d="M 253.5,49.5 C 253.5,50.1667 253.5,50.8333 253.5,51.5C 252.797,53.6287 251.797,55.6287 250.5,57.5C 250.345,54.284 251.345,51.6174 253.5,49.5 Z"/></g>
<g><path style="opacity:1" fill="#4d46e3" d="M 287.5,27.5 C 290.85,27.335 294.183,27.5017 297.5,28C 299.035,31.6808 300.202,35.5142 301,39.5C 301.671,40.2524 302.504,40.5858 303.5,40.5C 303.433,41.9587 303.766,43.2921 304.5,44.5C 304.335,47.8499 304.502,51.1832 305,54.5C 305.667,55.1667 306.333,55.8333 307,56.5C 307.667,59.8333 308.333,63.1667 309,66.5C 310.792,68.9868 312.292,71.6535 313.5,74.5C 311.5,75.8333 309.5,75.8333 307.5,74.5C 307.709,73.914 308.043,73.414 308.5,73C 307.421,72.044 306.255,71.2106 305,70.5C 304.696,68.5595 303.863,66.8928 302.5,65.5C 302.709,64.914 303.043,64.414 303.5,64C 302.207,63.51 300.873,63.3433 299.5,63.5C 300.509,58.2039 300.676,52.8706 300,47.5C 296.52,43.8721 294.687,39.5388 294.5,34.5C 293.167,34.5 291.833,34.5 290.5,34.5C 290.5,36.1667 290.5,37.8333 290.5,39.5C 290.5,39.8333 290.5,40.1667 290.5,40.5C 289.25,40.4226 288.417,39.756 288,38.5C 286.106,42.5684 285.273,46.9018 285.5,51.5C 284.209,51.7373 283.209,51.404 282.5,50.5C 281.445,47.9272 281.278,45.2605 282,42.5C 283.414,37.2927 285.247,32.2927 287.5,27.5 Z"/></g>
<g><path style="opacity:1" fill="#967fcf" d="M 293.5,39.5 C 295.04,41.8383 295.706,44.5049 295.5,47.5C 294.833,46.1667 294.167,44.8333 293.5,43.5C 293.5,42.8333 293.5,42.1667 293.5,41.5C 293.5,40.8333 293.5,40.1667 293.5,39.5 Z"/></g>
<g><path style="opacity:1" fill="#babbef" d="M 293.5,39.5 C 293.5,40.1667 293.5,40.8333 293.5,41.5C 292.624,41.3691 291.957,41.7025 291.5,42.5C 290.909,45.92 289.576,48.92 287.5,51.5C 288.21,47.7487 289.21,44.082 290.5,40.5C 290.5,40.1667 290.5,39.8333 290.5,39.5C 291.151,38.9094 291.818,38.2427 292.5,37.5C 293.298,37.9569 293.631,38.6236 293.5,39.5 Z"/></g>
<g><path style="opacity:1" fill="#544cc8" d="M 67.5,56.5 C 66.1667,57.1667 64.8333,57.8333 63.5,58.5C 59.9394,59.2302 56.2728,59.8969 52.5,60.5C 52.1667,60.5 51.8333,60.5 51.5,60.5C 51.5,59.5 51.5,58.5 51.5,57.5C 56.8049,56.8058 62.1383,56.4724 67.5,56.5 Z"/></g>
<g><path style="opacity:1" fill="#a89ede" d="M 115.5,56.5 C 112.85,57.247 110.184,58.247 107.5,59.5C 105.364,60.9688 104.03,62.9688 103.5,65.5C 103.167,65.5 102.833,65.5 102.5,65.5C 104.073,58.782 108.406,55.782 115.5,56.5 Z"/></g>
<g><path style="opacity:1" fill="#5245d5" d="M 130.5,45.5 C 131.833,46.1667 133.167,46.8333 134.5,47.5C 134.366,49.2915 134.699,50.9582 135.5,52.5C 135.5,54.5 135.5,56.5 135.5,58.5C 135.167,58.5 134.833,58.5 134.5,58.5C 134.5,56.5 134.5,54.5 134.5,52.5C 132.328,53.8011 129.995,54.8011 127.5,55.5C 127.5,57.1667 127.5,58.8333 127.5,60.5C 124.823,58.5058 122.323,58.5058 120,60.5C 119.5,60.1667 119,59.8333 118.5,59.5C 120.753,58.0208 123.087,56.6875 125.5,55.5C 125.5,55.1667 125.5,54.8333 125.5,54.5C 125.5,53.5 125.5,52.5 125.5,51.5C 125.5,51.1667 125.5,50.8333 125.5,50.5C 125.196,49.8501 124.863,49.1835 124.5,48.5C 120.489,47.7733 116.489,47.1066 112.5,46.5C 111.476,47.8532 110.143,48.5198 108.5,48.5C 108.33,47.1779 108.663,46.0113 109.5,45C 116.536,44.2803 123.536,44.4469 130.5,45.5 Z"/></g>
<g><path style="opacity:1" fill="#4f46e4" d="M 207.5,75.5 C 207.5,75.1667 207.5,74.8333 207.5,74.5C 208.158,71.8445 208.825,69.1778 209.5,66.5C 208.205,63.6205 207.538,60.6205 207.5,57.5C 208.833,57.5 210.167,57.5 211.5,57.5C 212.165,63.477 212.498,69.477 212.5,75.5C 210.833,75.5 209.167,75.5 207.5,75.5 Z"/></g>
<g><path style="opacity:1" fill="#f8f7fa" d="M 232.5,57.5 C 232.59,59.6963 232.923,61.863 233.5,64C 233.507,65.8122 232.84,67.3122 231.5,68.5C 232.932,72.3575 234.599,76.0242 236.5,79.5C 235.5,79.5 234.5,79.5 233.5,79.5C 233.703,81.6382 234.703,83.3049 236.5,84.5C 234.257,85.4742 231.924,85.8076 229.5,85.5C 228.665,84.0568 227.332,83.0568 225.5,82.5C 226.5,80.8333 227.833,79.5 229.5,78.5C 227.945,76.057 227.278,73.3903 227.5,70.5C 228.5,70.5 229.5,70.5 230.5,70.5C 230.5,69.1667 230.5,67.8333 230.5,66.5C 228.123,66.7845 225.956,66.7845 224,66.5C 221.82,67.3462 220.32,68.8462 219.5,71C 222.176,75.9828 224.176,81.3162 225.5,87C 224.308,89.0548 224.308,91.0548 225.5,93C 222.834,93.1619 220.834,91.9952 219.5,89.5C 220.932,86.2939 221.598,82.9606 221.5,79.5C 220.5,79.5 219.5,79.5 218.5,79.5C 218.5,70.5 218.5,61.5 218.5,52.5C 220.792,52.7564 222.959,52.4231 225,51.5C 225.333,49.1667 225.667,46.8333 226,44.5C 226.939,47.1209 227.772,49.7875 228.5,52.5C 230.168,54.0154 231.501,55.6821 232.5,57.5 Z"/></g>
<g><path style="opacity:1" fill="#896ecb" d="M 232.5,55.5 C 233.167,55.8333 233.833,56.1667 234.5,56.5C 234.263,57.791 234.596,58.791 235.5,59.5C 235.5,60.8333 235.5,62.1667 235.5,63.5C 234.5,61.5 233.5,59.5 232.5,57.5C 232.5,56.8333 232.5,56.1667 232.5,55.5 Z"/></g>
<g><path style="opacity:1" fill="#5549cd" d="M 125.5,55.5 C 123.087,56.6875 120.753,58.0208 118.5,59.5C 119,59.8333 119.5,60.1667 120,60.5C 122.323,58.5058 124.823,58.5058 127.5,60.5C 127.784,62.4147 127.451,64.0813 126.5,65.5C 126.99,63.0516 126.157,61.385 124,60.5C 120.359,60.7281 117.192,61.7281 114.5,63.5C 113.167,65.5 113.167,67.5 114.5,69.5C 114.833,70.1667 115.167,70.8333 115.5,71.5C 114.5,71.5 113.5,71.5 112.5,71.5C 112.5,67.5 112.5,63.5 112.5,59.5C 111.5,59.5 110.5,59.5 109.5,59.5C 109.167,61.5 108.833,63.5 108.5,65.5C 107.167,65.5 105.833,65.5 104.5,65.5C 104.5,66.8333 104.5,68.1667 104.5,69.5C 103.566,68.4324 103.232,67.099 103.5,65.5C 104.03,62.9688 105.364,60.9688 107.5,59.5C 110.184,58.247 112.85,57.247 115.5,56.5C 116.167,56.5 116.833,56.5 117.5,56.5C 120.167,56.1667 122.833,55.8333 125.5,55.5 Z"/></g>
<g><path style="opacity:1" fill="#5f4db6" d="M 200.5,49.5 C 202.858,49.2525 204.858,49.9192 206.5,51.5C 206.175,59.3516 206.508,67.0182 207.5,74.5C 207.5,74.8333 207.5,75.1667 207.5,75.5C 207.62,76.5862 208.287,77.2528 209.5,77.5C 211.135,76.9537 212.801,76.6204 214.5,76.5C 212.012,78.3878 209.012,79.0545 205.5,78.5C 205.826,69.6506 205.493,60.9839 204.5,52.5C 204.5,51.8333 204.167,51.5 203.5,51.5C 202.5,50.8333 201.5,50.1667 200.5,49.5 Z"/></g>
<g><path style="opacity:1" fill="#cddaf7" d="M 156.5,55.5 C 156.191,59.7047 156.857,63.7047 158.5,67.5C 157.833,67.5 157.167,67.5 156.5,67.5C 154.513,64.1415 154.013,60.4748 155,56.5C 155.383,55.944 155.883,55.6107 156.5,55.5 Z"/></g>
<g><path style="opacity:1" fill="#6468ca" d="M 261.5,54.5 C 259.377,58.6632 257.71,62.9965 256.5,67.5C 256.5,65.5 256.5,63.5 256.5,61.5C 257.749,58.9097 259.416,56.5764 261.5,54.5 Z"/></g>
<g><path style="opacity:1" fill="#dcccf1" d="M 199.5,51.5 C 200.833,51.5 202.167,51.5 203.5,51.5C 204.167,51.5 204.5,51.8333 204.5,52.5C 204.5,61.5 204.5,70.5 204.5,79.5C 204.167,79.5 203.833,79.5 203.5,79.5C 203.5,70.5 203.5,61.5 203.5,52.5C 201.901,52.7678 200.568,52.4345 199.5,51.5 Z"/></g>
<g><path style="opacity:1" fill="#4b48d0" d="M 206.5,51.5 C 207.867,55.459 210.534,56.459 214.5,54.5C 214.5,61.8333 214.5,69.1667 214.5,76.5C 212.801,76.6204 211.135,76.9537 209.5,77.5C 208.287,77.2528 207.62,76.5862 207.5,75.5C 209.167,75.5 210.833,75.5 212.5,75.5C 212.498,69.477 212.165,63.477 211.5,57.5C 210.167,57.5 208.833,57.5 207.5,57.5C 207.538,60.6205 208.205,63.6205 209.5,66.5C 208.825,69.1778 208.158,71.8445 207.5,74.5C 206.508,67.0182 206.175,59.3516 206.5,51.5 Z"/></g>
<g><path style="opacity:1" fill="#7379d1" d="M 243.5,55.5 C 244.167,56.1667 244.833,56.8333 245.5,57.5C 245.5,58.5 245.5,59.5 245.5,60.5C 245.5,61.5 245.5,62.5 245.5,63.5C 245.167,63.5 244.833,63.5 244.5,63.5C 244.167,60.8333 243.833,58.1667 243.5,55.5 Z"/></g>
<g><path style="opacity:1" fill="#9488cd" d="M 250.5,59.5 C 250.125,61.6976 249.458,63.6976 248.5,65.5C 248.054,62.9899 248.72,60.9899 250.5,59.5 Z"/></g>
<g><path style="opacity:1" fill="#b0bcea" d="M 309.5,53.5 C 312.197,56.8992 313.53,60.8992 313.5,65.5C 312.833,64.8333 312.167,64.1667 311.5,63.5C 310.518,60.2365 309.851,56.9032 309.5,53.5 Z"/></g>
<g><path style="opacity:1" fill="#5143e3" d="M 42.5,26.5 C 44.1667,26.5 45.8333,26.5 47.5,26.5C 47.335,29.8499 47.5017,33.1832 48,36.5C 48.6616,41.8685 49.8283,46.8685 51.5,51.5C 56.343,52.9562 61.1764,52.6229 66,50.5C 66.8151,45.6478 66.6484,40.9811 65.5,36.5C 65.2148,34.712 65.5481,33.0453 66.5,31.5C 68.0009,32.7515 69.6675,33.7515 71.5,34.5C 71.6513,37.0259 72.6513,39.5259 74.5,42C 72.6771,45.9811 71.6771,50.1478 71.5,54.5C 70.1667,55.1667 68.8333,55.8333 67.5,56.5C 62.1383,56.4724 56.8049,56.8058 51.5,57.5C 51.5,58.5 51.5,59.5 51.5,60.5C 50.0205,64.9183 49.0205,69.585 48.5,74.5C 46.5914,75.3482 44.5914,75.6816 42.5,75.5C 42.5,59.1667 42.5,42.8333 42.5,26.5 Z"/></g>
<g><path style="opacity:1" fill="#6a5fc3" d="M 64.5,36.5 C 64.8333,36.5 65.1667,36.5 65.5,36.5C 66.6484,40.9811 66.8151,45.6478 66,50.5C 61.1764,52.6229 56.343,52.9562 51.5,51.5C 52.1667,51.5 52.8333,51.5 53.5,51.5C 56.3854,51.8064 59.0521,51.4731 61.5,50.5C 63.1132,50.0557 64.2798,49.0557 65,47.5C 65.8045,44.3035 65.6378,41.3035 64.5,38.5C 64.5,37.8333 64.5,37.1667 64.5,36.5 Z"/></g>
<g><path style="opacity:1" fill="#cdc2f6" d="M 64.5,38.5 C 65.6378,41.3035 65.8045,44.3035 65,47.5C 64.2798,49.0557 63.1132,50.0557 61.5,50.5C 64.1145,47.0228 65.1145,43.0228 64.5,38.5 Z"/></g>
<g><path style="opacity:1" fill="#eff1f8" d="M 61.5,34.5 C 61.9731,35.9063 62.9731,36.573 64.5,36.5C 64.5,37.1667 64.5,37.8333 64.5,38.5C 65.1145,43.0228 64.1145,47.0228 61.5,50.5C 59.0521,51.4731 56.3854,51.8064 53.5,51.5C 52.3852,46.2501 52.2185,40.9167 53,35.5C 55.7191,34.5562 58.5525,34.2229 61.5,34.5 Z"/></g>
<g><path style="opacity:1" fill="#8b90df" d="M 61.5,34.5 C 58.5525,34.2229 55.7191,34.5562 53,35.5C 52.2185,40.9167 52.3852,46.2501 53.5,51.5C 52.8333,51.5 52.1667,51.5 51.5,51.5C 51.3339,45.8236 51.5006,40.1569 52,34.5C 55.2688,33.1816 58.4355,33.1816 61.5,34.5 Z"/></g>
<g><path style="opacity:1" fill="#8279c1" d="M 61.5,34.5 C 63.0269,34.427 64.0269,35.0937 64.5,36.5C 62.9731,36.573 61.9731,35.9063 61.5,34.5 Z"/></g>
<g><path style="opacity:1" fill="#6267c9" d="M 157.5,53.5 C 157.167,54.1667 156.833,54.8333 156.5,55.5C 155.883,55.6107 155.383,55.944 155,56.5C 154.013,60.4748 154.513,64.1415 156.5,67.5C 155.504,67.5858 154.671,67.2524 154,66.5C 153.188,62.3112 153.355,58.3112 154.5,54.5C 155.391,53.8902 156.391,53.5569 157.5,53.5 Z"/></g>
<g><path style="opacity:1" fill="#564bcf" d="M 304.5,44.5 C 304.833,44.5 305.167,44.5 305.5,44.5C 306.287,47.9082 307.621,50.9082 309.5,53.5C 309.851,56.9032 310.518,60.2365 311.5,63.5C 312.214,67.9912 313.047,72.3245 314,76.5C 310.314,78.0631 307.147,77.3965 304.5,74.5C 304.279,71.9327 303.612,69.5994 302.5,67.5C 295.5,67.5 288.5,67.5 281.5,67.5C 283.265,66.5386 285.265,66.2053 287.5,66.5C 287.5,65.5 287.5,64.5 287.5,63.5C 290.167,63.5 292.833,63.5 295.5,63.5C 295.5,62.5 295.5,61.5 295.5,60.5C 291.351,61.0803 287.684,60.4136 284.5,58.5C 284.833,58.5 285.167,58.5 285.5,58.5C 289.833,58.5 294.167,58.5 298.5,58.5C 298.318,54.5109 297.318,50.8442 295.5,47.5C 295.706,44.5049 295.04,41.8383 293.5,39.5C 293.631,38.6236 293.298,37.9569 292.5,37.5C 291.818,38.2427 291.151,38.9094 290.5,39.5C 290.5,37.8333 290.5,36.1667 290.5,34.5C 291.833,34.5 293.167,34.5 294.5,34.5C 294.687,39.5388 296.52,43.8721 300,47.5C 300.676,52.8706 300.509,58.2039 299.5,63.5C 300.873,63.3433 302.207,63.51 303.5,64C 303.043,64.414 302.709,64.914 302.5,65.5C 303.863,66.8928 304.696,68.5595 305,70.5C 306.255,71.2106 307.421,72.044 308.5,73C 308.043,73.414 307.709,73.914 307.5,74.5C 309.5,75.8333 311.5,75.8333 313.5,74.5C 312.292,71.6535 310.792,68.9868 309,66.5C 308.333,63.1667 307.667,59.8333 307,56.5C 306.333,55.8333 305.667,55.1667 305,54.5C 304.502,51.1832 304.335,47.8499 304.5,44.5 Z"/></g>
<g><path style="opacity:1" fill="#fceefd" d="M 322.5,29.5 C 322.5,45.8333 322.5,62.1667 322.5,78.5C 321.737,74.5816 320.737,70.5816 319.5,66.5C 321.001,59.5865 320.668,52.7532 318.5,46C 318.667,44.5 318.833,43 319,41.5C 319.333,43.5 319.667,45.5 320,47.5C 320.788,41.7805 320.621,36.1138 319.5,30.5C 320.325,29.6143 321.325,29.281 322.5,29.5 Z"/></g>
<g><path style="opacity:1" fill="#8479d6" d="M 126.5,65.5 C 126.672,66.4916 126.338,67.1583 125.5,67.5C 125.5,65.8333 125.5,64.1667 125.5,62.5C 121.958,62.1872 118.625,62.5206 115.5,63.5C 115.167,63.5 114.833,63.5 114.5,63.5C 117.192,61.7281 120.359,60.7281 124,60.5C 126.157,61.385 126.99,63.0516 126.5,65.5 Z"/></g>
<g><path style="opacity:1" fill="#8d99ee" d="M 216.5,50.5 C 218.833,50.5 221.167,50.5 223.5,50.5C 221.444,51.2161 219.277,51.8828 217,52.5C 216.5,61.4938 216.334,70.4938 216.5,79.5C 216.167,79.5 215.833,79.5 215.5,79.5C 215.5,78.5 215.5,77.5 215.5,76.5C 215.197,67.7489 215.53,59.0823 216.5,50.5 Z"/></g>
<g><path style="opacity:1" fill="#8f7cd5" d="M 235.5,63.5 C 237.588,65.3356 238.921,67.6689 239.5,70.5C 237.907,69.6521 236.74,68.3187 236,66.5C 235.517,65.552 235.351,64.552 235.5,63.5 Z"/></g>
<g><path style="opacity:1" fill="#6252cd" d="M 253.5,51.5 C 253.494,56.2153 252.994,60.882 252,65.5C 250.211,67.229 248.044,67.8957 245.5,67.5C 245.5,66.1667 245.5,64.8333 245.5,63.5C 246.222,64.5511 247.222,65.2178 248.5,65.5C 249.458,63.6976 250.125,61.6976 250.5,59.5C 250.5,58.8333 250.5,58.1667 250.5,57.5C 251.797,55.6287 252.797,53.6287 253.5,51.5 Z"/></g>
<g><path style="opacity:1" fill="#6c63c8" d="M 324.5,25.5 C 328.167,25.5 331.833,25.5 335.5,25.5C 335.5,43.5 335.5,61.5 335.5,79.5C 331.833,79.5 328.167,79.5 324.5,79.5C 324.5,61.5 324.5,43.5 324.5,25.5 Z"/></g>
<g><path style="opacity:1" fill="#473dc2" d="M 325.5,26.5 C 328.5,26.5 331.5,26.5 334.5,26.5C 334.5,43.8333 334.5,61.1667 334.5,78.5C 331.5,78.5 328.5,78.5 325.5,78.5C 325.5,61.1667 325.5,43.8333 325.5,26.5 Z"/></g>
<g><path style="opacity:1" fill="#4e45e4" d="M 326.5,27.5 C 328.5,27.5 330.5,27.5 332.5,27.5C 333.701,43.4803 333.701,59.4803 332.5,75.5C 330.5,75.5 328.5,75.5 326.5,75.5C 326.5,59.5 326.5,43.5 326.5,27.5 Z"/></g>
<g><path style="opacity:1" fill="#8e86cf" d="M 84.5,23.5 C 88.5,23.5 92.5,23.5 96.5,23.5C 96.5,42.1667 96.5,60.8333 96.5,79.5C 92.5,79.5 88.5,79.5 84.5,79.5C 84.5,60.8333 84.5,42.1667 84.5,23.5 Z"/></g>
<g><path style="opacity:1" fill="#5d4cc5" d="M 94.5,76.5 C 92.0122,78.3878 89.0122,79.0545 85.5,78.5C 85.5,60.5 85.5,42.5 85.5,24.5C 88.8333,24.5 92.1667,24.5 95.5,24.5C 95.83,42.008 95.4967,59.3414 94.5,76.5 Z"/></g>
<g><path style="opacity:1" fill="#4541cb" d="M 93.5,31.5 C 94.4961,46.324 94.8294,61.324 94.5,76.5C 91.728,77.7671 89.0613,77.7671 86.5,76.5C 88.4352,75.8505 90.4352,75.5172 92.5,75.5C 93.2496,60.8456 93.5829,46.179 93.5,31.5 Z"/></g>
<g><path style="opacity:1" fill="#5542e0" d="M 93.5,31.5 C 93.5829,46.179 93.2496,60.8456 92.5,75.5C 90.4352,75.5172 88.4352,75.8505 86.5,76.5C 86.5,59.5 86.5,42.5 86.5,25.5C 91.4948,24.5823 93.8281,26.5823 93.5,31.5 Z"/></g>
<g><path style="opacity:1" fill="#d5d4f6" d="M 125.5,67.5 C 122.274,70.4782 118.608,71.1449 114.5,69.5C 113.167,67.5 113.167,65.5 114.5,63.5C 114.833,63.5 115.167,63.5 115.5,63.5C 118.625,62.5206 121.958,62.1872 125.5,62.5C 125.5,64.1667 125.5,65.8333 125.5,67.5 Z"/></g>
<g><path style="opacity:1" fill="#f7f9fb" d="M 115.5,63.5 C 118.5,63.5 121.5,63.5 124.5,63.5C 124.646,65.9424 123.813,66.6091 122,65.5C 121.517,66.448 121.351,67.448 121.5,68.5C 119.167,68.5 116.833,68.5 114.5,68.5C 114.366,66.7085 114.699,65.0418 115.5,63.5 Z"/></g>
<g><path style="opacity:1" fill="#9890d9" d="M 180.5,42.5 C 184.5,42.5 188.5,42.5 192.5,42.5C 192.5,54.8333 192.5,67.1667 192.5,79.5C 192.167,79.5 191.833,79.5 191.5,79.5C 191.5,78.5 191.5,77.5 191.5,76.5C 191.832,65.8126 191.499,55.1459 190.5,44.5C 187.579,43.5934 184.579,43.2601 181.5,43.5C 181.5,50.1667 181.5,56.8333 181.5,63.5C 181.218,68.9265 181.551,74.2599 182.5,79.5C 180.52,67.5453 179.854,55.212 180.5,42.5 Z"/></g>
<g><path style="opacity:1" fill="#5043e2" d="M 189.5,45.5 C 189.5,55.5 189.5,65.5 189.5,75.5C 187.5,75.5 185.5,75.5 183.5,75.5C 183.5,66.1667 183.5,56.8333 183.5,47.5C 183.5,46.5 183.5,45.5 183.5,44.5C 185.621,44.3253 187.621,44.6586 189.5,45.5 Z"/></g>
<g><path style="opacity:1" fill="#6357d1" d="M 191.5,76.5 C 191.167,76.5 190.833,76.5 190.5,76.5C 190.828,65.9865 190.494,55.6532 189.5,45.5C 187.621,44.6586 185.621,44.3253 183.5,44.5C 183.5,45.5 183.5,46.5 183.5,47.5C 182.512,52.6405 182.179,57.9738 182.5,63.5C 182.167,63.5 181.833,63.5 181.5,63.5C 181.5,56.8333 181.5,50.1667 181.5,43.5C 184.579,43.2601 187.579,43.5934 190.5,44.5C 191.499,55.1459 191.832,65.8126 191.5,76.5 Z"/></g>
<g><path style="opacity:1" fill="#5360d4" d="M 215.5,50.5 C 215.833,50.5 216.167,50.5 216.5,50.5C 215.53,59.0823 215.197,67.7489 215.5,76.5C 215.167,76.5 214.833,76.5 214.5,76.5C 214.5,69.1667 214.5,61.8333 214.5,54.5C 214.232,52.901 214.566,51.5676 215.5,50.5 Z"/></g>
<g><path style="opacity:1" fill="#7f6ed3" d="M 272.5,61.5 C 272.833,61.5 273.167,61.5 273.5,61.5C 273.5,61.8333 273.5,62.1667 273.5,62.5C 273.31,65.8027 272.31,68.8027 270.5,71.5C 270.167,71.5 269.833,71.5 269.5,71.5C 269.584,68.6726 270.25,66.006 271.5,63.5C 272.338,63.1583 272.672,62.4916 272.5,61.5 Z"/></g>
<g><path style="opacity:1" fill="#6b5cc0" d="M 181.5,63.5 C 181.833,63.5 182.167,63.5 182.5,63.5C 182.5,68.1667 182.5,72.8333 182.5,77.5C 185.385,77.8064 188.052,77.4731 190.5,76.5C 190.833,76.5 191.167,76.5 191.5,76.5C 191.5,77.5 191.5,78.5 191.5,79.5C 188.5,79.5 185.5,79.5 182.5,79.5C 181.551,74.2599 181.218,68.9265 181.5,63.5 Z"/></g>
<g><path style="opacity:1" fill="#5744cd" d="M 189.5,45.5 C 190.494,55.6532 190.828,65.9865 190.5,76.5C 188.052,77.4731 185.385,77.8064 182.5,77.5C 182.5,72.8333 182.5,68.1667 182.5,63.5C 182.179,57.9738 182.512,52.6405 183.5,47.5C 183.5,56.8333 183.5,66.1667 183.5,75.5C 185.5,75.5 187.5,75.5 189.5,75.5C 189.5,65.5 189.5,55.5 189.5,45.5 Z"/></g>
<g><path style="opacity:1" fill="#6959bf" d="M 146.5,69.5 C 148.793,71.4687 150.793,73.802 152.5,76.5C 151.833,76.5 151.167,76.5 150.5,76.5C 149.5,75.1667 148.5,73.8333 147.5,72.5C 147.443,71.391 147.11,70.391 146.5,69.5 Z"/></g>
<g><path style="opacity:1" fill="#786fd3" d="M 125.5,67.5 C 125.5,68.5 125.5,69.5 125.5,70.5C 124.041,70.4326 122.708,70.7659 121.5,71.5C 119.833,71.5 118.167,71.5 116.5,71.5C 116.167,71.5 115.833,71.5 115.5,71.5C 115.167,70.8333 114.833,70.1667 114.5,69.5C 118.608,71.1449 122.274,70.4782 125.5,67.5 Z"/></g>
<g><path style="opacity:1" fill="#4f45d1" d="M 157.5,68.5 C 158.167,68.8333 158.833,69.1667 159.5,69.5C 163.634,70.4849 167.968,70.8182 172.5,70.5C 172.5,72.5 172.5,74.5 172.5,76.5C 171.5,76.5 170.5,76.5 169.5,76.5C 165.149,76.6053 160.816,76.6053 156.5,76.5C 157.473,74.0521 157.806,71.3854 157.5,68.5 Z"/></g>
<g><path style="opacity:1" fill="#bbbdec" d="M 156.5,67.5 C 157.167,67.5 157.833,67.5 158.5,67.5C 163.78,68.6611 169.114,68.6611 174.5,67.5C 174.665,70.8499 174.498,74.1832 174,77.5C 172.67,78.5822 171.17,79.2488 169.5,79.5C 170.306,78.2719 171.306,77.2719 172.5,76.5C 173.8,73.9759 173.8,71.3092 172.5,68.5C 168.235,69.4386 163.902,69.7719 159.5,69.5C 158.833,69.1667 158.167,68.8333 157.5,68.5C 156.833,68.5 156.5,68.1667 156.5,67.5 Z"/></g>
<g><path style="opacity:1" fill="#cfcbf7" d="M 281.5,67.5 C 288.5,67.5 295.5,67.5 302.5,67.5C 302.5,69.1667 302.5,70.8333 302.5,72.5C 301.566,71.4324 301.232,70.099 301.5,68.5C 296.833,68.5 292.167,68.5 287.5,68.5C 285.833,68.5 284.167,68.5 282.5,68.5C 282.737,69.791 282.404,70.791 281.5,71.5C 281.5,70.1667 281.5,68.8333 281.5,67.5 Z"/></g>
<g><path style="opacity:1" fill="#7560bc" d="M 102.5,65.5 C 102.833,65.5 103.167,65.5 103.5,65.5C 103.232,67.099 103.566,68.4324 104.5,69.5C 105.363,71.4214 106.029,73.4214 106.5,75.5C 103.637,72.9392 102.304,69.6058 102.5,65.5 Z"/></g>
<g><path style="opacity:1" fill="#4f45e1" d="M 134.5,58.5 C 134.5,64.5 134.5,70.5 134.5,76.5C 132.167,76.5 129.833,76.5 127.5,76.5C 128.165,73.1116 127.165,72.1116 124.5,73.5C 122.962,73.5466 121.962,72.8799 121.5,71.5C 122.708,70.7659 124.041,70.4326 125.5,70.5C 125.5,69.5 125.5,68.5 125.5,67.5C 126.338,67.1583 126.672,66.4916 126.5,65.5C 127.451,64.0813 127.784,62.4147 127.5,60.5C 127.5,58.8333 127.5,57.1667 127.5,55.5C 129.995,54.8011 132.328,53.8011 134.5,52.5C 134.5,54.5 134.5,56.5 134.5,58.5 Z"/></g>
<g><path style="opacity:1" fill="#6465c1" d="M 135.5,52.5 C 136.493,61.3178 136.827,70.3178 136.5,79.5C 133.833,79.5 131.167,79.5 128.5,79.5C 128.5,79.1667 128.5,78.8333 128.5,78.5C 130.833,78.5 133.167,78.5 135.5,78.5C 135.5,71.8333 135.5,65.1667 135.5,58.5C 135.5,56.5 135.5,54.5 135.5,52.5 Z"/></g>
<g><path style="opacity:1" fill="#a8bbe6" d="M 313.5,66.5 C 314.458,66.9528 315.292,67.6195 316,68.5C 316.44,70.8659 316.94,73.1992 317.5,75.5C 317.167,75.5 316.833,75.5 316.5,75.5C 315.304,72.5786 314.304,69.5786 313.5,66.5 Z"/></g>
<g><path style="opacity:1" fill="#4e47be" d="M 134.5,58.5 C 134.833,58.5 135.167,58.5 135.5,58.5C 135.5,65.1667 135.5,71.8333 135.5,78.5C 133.167,78.5 130.833,78.5 128.5,78.5C 126.824,77.8166 126.157,76.4832 126.5,74.5C 123.075,76.6987 119.242,78.0321 115,78.5C 112.079,78.1359 109.246,77.4692 106.5,76.5C 106.5,76.1667 106.5,75.8333 106.5,75.5C 110.221,76.049 113.888,76.549 117.5,77C 118.844,74.8564 118.51,73.0231 116.5,71.5C 118.167,71.5 119.833,71.5 121.5,71.5C 121.962,72.8799 122.962,73.5466 124.5,73.5C 127.165,72.1116 128.165,73.1116 127.5,76.5C 129.833,76.5 132.167,76.5 134.5,76.5C 134.5,70.5 134.5,64.5 134.5,58.5 Z"/></g>
<g><path style="opacity:1" fill="#6b67c6" d="M 172.5,76.5 C 172.5,74.5 172.5,72.5 172.5,70.5C 167.968,70.8182 163.634,70.4849 159.5,69.5C 163.902,69.7719 168.235,69.4386 172.5,68.5C 173.8,71.3092 173.8,73.9759 172.5,76.5 Z"/></g>
<g><path style="opacity:1" fill="#8274bd" d="M 204.5,52.5 C 205.493,60.9839 205.826,69.6506 205.5,78.5C 209.012,79.0545 212.012,78.3878 214.5,76.5C 214.833,76.5 215.167,76.5 215.5,76.5C 215.5,77.5 215.5,78.5 215.5,79.5C 211.833,79.5 208.167,79.5 204.5,79.5C 204.5,70.5 204.5,61.5 204.5,52.5 Z"/></g>
<g><path style="opacity:1" fill="#6e73ca" d="M 256.5,67.5 C 256.634,69.2915 256.301,70.9582 255.5,72.5C 253.933,75.9259 252.266,79.2592 250.5,82.5C 251.388,78.7843 252.388,75.1177 253.5,71.5C 254.857,70.4097 255.857,69.0764 256.5,67.5 Z"/></g>
<g><path style="opacity:1" fill="#5044dd" d="M 115.5,71.5 C 115.833,71.5 116.167,71.5 116.5,71.5C 118.51,73.0231 118.844,74.8564 117.5,77C 113.888,76.549 110.221,76.049 106.5,75.5C 106.029,73.4214 105.363,71.4214 104.5,69.5C 104.5,68.1667 104.5,66.8333 104.5,65.5C 105.833,65.5 107.167,65.5 108.5,65.5C 108.833,63.5 109.167,61.5 109.5,59.5C 110.5,59.5 111.5,59.5 112.5,59.5C 112.5,63.5 112.5,67.5 112.5,71.5C 113.5,71.5 114.5,71.5 115.5,71.5 Z"/></g>
<g><path style="opacity:1" fill="#4f43e8" d="M 169.5,76.5 C 166.121,76.112 162.788,75.4453 159.5,74.5C 163.106,72.0314 167.106,71.0314 171.5,71.5C 171.635,73.5542 170.968,75.2209 169.5,76.5 Z"/></g>
<g><path style="opacity:1" fill="#f3ebf9" d="M 232.5,57.5 C 233.5,59.5 234.5,61.5 235.5,63.5C 235.351,64.552 235.517,65.552 236,66.5C 236.74,68.3187 237.907,69.6521 239.5,70.5C 239.5,71.5 239.5,72.5 239.5,73.5C 240.424,76.5533 240.424,79.5533 239.5,82.5C 239.5,83.1667 239.5,83.8333 239.5,84.5C 236.079,86.1466 232.413,86.8132 228.5,86.5C 228.5,85.8333 228.833,85.5 229.5,85.5C 231.924,85.8076 234.257,85.4742 236.5,84.5C 234.703,83.3049 233.703,81.6382 233.5,79.5C 234.5,79.5 235.5,79.5 236.5,79.5C 234.599,76.0242 232.932,72.3575 231.5,68.5C 232.84,67.3122 233.507,65.8122 233.5,64C 232.923,61.863 232.59,59.6963 232.5,57.5 Z"/></g>
<g><path style="opacity:1" fill="#b7bcec" d="M 63.5,58.5 C 64.1667,58.5 64.8333,58.5 65.5,58.5C 64.9423,59.7899 63.9423,60.6232 62.5,61C 59.5184,61.498 56.5184,61.6646 53.5,61.5C 53.8229,67.69 53.4896,73.69 52.5,79.5C 52.5,73.1667 52.5,66.8333 52.5,60.5C 56.2728,59.8969 59.9394,59.2302 63.5,58.5 Z"/></g>
<g><path style="opacity:1" fill="#5446c7" d="M 42.5,26.5 C 42.5,42.8333 42.5,59.1667 42.5,75.5C 44.5914,75.6816 46.5914,75.3482 48.5,74.5C 49.0205,69.585 50.0205,64.9183 51.5,60.5C 51.6968,66.5451 51.3635,72.5451 50.5,78.5C 47.5,78.5 44.5,78.5 41.5,78.5C 41.17,60.992 41.5033,43.6586 42.5,26.5 Z"/></g>
<g><path style="opacity:1" fill="#5448ce" d="M 239.5,43.5 C 239.5,43.8333 239.5,44.1667 239.5,44.5C 239.667,48.6734 241,52.3401 243.5,55.5C 243.833,58.1667 244.167,60.8333 244.5,63.5C 241.594,65.915 240.927,68.915 242.5,72.5C 244.085,69.7276 245.085,69.8943 245.5,73C 244.178,77.8057 243.011,82.639 242,87.5C 238.35,89.0462 234.516,89.7129 230.5,89.5C 232.487,88.6568 234.654,87.9902 237,87.5C 238.31,86.8699 239.144,85.8699 239.5,84.5C 239.5,83.8333 239.5,83.1667 239.5,82.5C 241.026,81.5081 241.693,80.0081 241.5,78C 241.693,75.9919 241.026,74.4919 239.5,73.5C 239.5,72.5 239.5,71.5 239.5,70.5C 238.921,67.6689 237.588,65.3356 235.5,63.5C 235.5,62.1667 235.5,60.8333 235.5,59.5C 237.104,60.287 237.771,61.6203 237.5,63.5C 238.5,63.5 239.5,63.5 240.5,63.5C 240.734,57.2317 239.734,51.2317 237.5,45.5C 235.876,45.3601 234.71,46.0267 234,47.5C 233.366,50.5547 233.532,53.5547 234.5,56.5C 233.833,56.1667 233.167,55.8333 232.5,55.5C 232.5,54.8333 232.5,54.1667 232.5,53.5C 231.799,50.0171 230.799,46.6838 229.5,43.5C 232.833,43.5 236.167,43.5 239.5,43.5 Z"/></g>
<g><path style="opacity:1" fill="#efe9fa" d="M 125.5,51.5 C 125.5,52.5 125.5,53.5 125.5,54.5C 122.447,54.1107 119.78,54.7773 117.5,56.5C 116.833,56.5 116.167,56.5 115.5,56.5C 108.406,55.782 104.073,58.782 102.5,65.5C 102.304,69.6058 103.637,72.9392 106.5,75.5C 106.5,75.8333 106.5,76.1667 106.5,76.5C 106.833,77.1667 107.167,77.8333 107.5,78.5C 105.958,79.3007 104.292,79.634 102.5,79.5C 102.802,76.9407 102.468,74.6074 101.5,72.5C 101.334,68.4862 101.501,64.4862 102,60.5C 103.5,58.3333 105.333,56.5 107.5,55C 106.944,54.6174 106.611,54.1174 106.5,53.5C 108.898,53.7406 110.898,53.0739 112.5,51.5C 112.833,51.5 113.167,51.5 113.5,51.5C 117.472,50.3797 121.472,50.3797 125.5,51.5 Z"/></g>
<g><path style="opacity:1" fill="#4e49c1" d="M 281.5,67.5 C 281.5,68.8333 281.5,70.1667 281.5,71.5C 281.5,71.8333 281.5,72.1667 281.5,72.5C 281.167,72.5 280.833,72.5 280.5,72.5C 279.539,74.2646 279.205,76.2646 279.5,78.5C 276.167,78.5 272.833,78.5 269.5,78.5C 269.5,76.5 269.5,74.5 269.5,72.5C 269.5,72.1667 269.5,71.8333 269.5,71.5C 269.833,71.5 270.167,71.5 270.5,71.5C 270.5,73.5 270.5,75.5 270.5,77.5C 275.803,76.8635 278.803,73.8635 279.5,68.5C 279.957,67.7025 280.624,67.3691 281.5,67.5 Z"/></g>
<g><path style="opacity:1" fill="#bfacee" d="M 239.5,73.5 C 241.026,74.4919 241.693,75.9919 241.5,78C 241.693,80.0081 241.026,81.5081 239.5,82.5C 240.424,79.5533 240.424,76.5533 239.5,73.5 Z"/></g>
<g><path style="opacity:1" fill="#a291ce" d="M 302.5,67.5 C 303.612,69.5994 304.279,71.9327 304.5,74.5C 304.66,76.153 305.326,77.4863 306.5,78.5C 306.5,78.8333 306.5,79.1667 306.5,79.5C 305.624,79.6309 304.957,79.2975 304.5,78.5C 303.95,76.3432 303.283,74.3432 302.5,72.5C 302.5,70.8333 302.5,69.1667 302.5,67.5 Z"/></g>
<g><path style="opacity:1" fill="#4b4cb2" d="M 311.5,63.5 C 312.167,64.1667 312.833,64.8333 313.5,65.5C 313.5,65.8333 313.5,66.1667 313.5,66.5C 314.304,69.5786 315.304,72.5786 316.5,75.5C 316.5,76.5 316.5,77.5 316.5,78.5C 313.167,78.5 309.833,78.5 306.5,78.5C 305.326,77.4863 304.66,76.153 304.5,74.5C 307.147,77.3965 310.314,78.0631 314,76.5C 313.047,72.3245 312.214,67.9912 311.5,63.5 Z"/></g>
<g><path style="opacity:1" fill="#928cd9" d="M 128.5,78.5 C 128.5,78.8333 128.5,79.1667 128.5,79.5C 127.5,79.5 126.5,79.5 125.5,79.5C 125.026,75.8431 123.693,75.6764 121.5,79C 116.748,79.7734 112.081,79.6068 107.5,78.5C 107.167,77.8333 106.833,77.1667 106.5,76.5C 109.246,77.4692 112.079,78.1359 115,78.5C 119.242,78.0321 123.075,76.6987 126.5,74.5C 126.157,76.4832 126.824,77.8166 128.5,78.5 Z"/></g>
<g><path style="opacity:1" fill="#beb4ef" d="M 150.5,76.5 C 151.167,76.5 151.833,76.5 152.5,76.5C 154.076,77.1429 155.41,78.1429 156.5,79.5C 153.895,79.3794 151.895,78.3794 150.5,76.5 Z"/></g>
<g><path style="opacity:1" fill="#675fc6" d="M 152.5,76.5 C 153.833,76.5 155.167,76.5 156.5,76.5C 160.816,76.6053 165.149,76.6053 169.5,76.5C 170.5,76.5 171.5,76.5 172.5,76.5C 171.306,77.2719 170.306,78.2719 169.5,79.5C 165.167,79.5 160.833,79.5 156.5,79.5C 155.41,78.1429 154.076,77.1429 152.5,76.5 Z"/></g>
<g><path style="opacity:1" fill="#6c6dc1" d="M 316.5,75.5 C 316.833,75.5 317.167,75.5 317.5,75.5C 317.5,76.8333 317.5,78.1667 317.5,79.5C 313.833,79.5 310.167,79.5 306.5,79.5C 306.5,79.1667 306.5,78.8333 306.5,78.5C 309.833,78.5 313.167,78.5 316.5,78.5C 316.5,77.5 316.5,76.5 316.5,75.5 Z"/></g>
<g><path style="opacity:1" fill="#f5f5f9" d="M 265.5,46.5 C 265.833,46.5 266.167,46.5 266.5,46.5C 266.498,49.826 267.498,52.826 269.5,55.5C 267.93,58.782 268.597,61.4487 271.5,63.5C 270.25,66.006 269.584,68.6726 269.5,71.5C 269.5,71.8333 269.5,72.1667 269.5,72.5C 268.076,74.5145 267.41,76.8478 267.5,79.5C 271.833,79.5 276.167,79.5 280.5,79.5C 280.5,77.1667 280.5,74.8333 280.5,72.5C 280.833,72.5 281.167,72.5 281.5,72.5C 281.777,75.4475 281.444,78.2809 280.5,81C 282.394,82.1011 283.061,83.4345 282.5,85C 284.701,85.8249 286.534,85.3249 288,83.5C 288.324,85.5689 289.158,85.9023 290.5,84.5C 294.819,88.7465 293.819,91.2465 287.5,92C 279.833,92.6667 272.167,92.6667 264.5,92C 261.982,88.9868 258.982,86.4868 255.5,84.5C 258.622,83.4392 261.622,82.1059 264.5,80.5C 263.758,79.7132 262.925,79.0465 262,78.5C 261.595,74.7872 261.595,71.1206 262,67.5C 261.29,66.0267 260.124,65.3601 258.5,65.5C 258.5,68.5 258.5,71.5 258.5,74.5C 257.5,74.5 256.5,74.5 255.5,74.5C 255.5,73.8333 255.5,73.1667 255.5,72.5C 256.301,70.9582 256.634,69.2915 256.5,67.5C 257.71,62.9965 259.377,58.6632 261.5,54.5C 261.5,54.1667 261.5,53.8333 261.5,53.5C 264.112,51.9478 265.445,49.6145 265.5,46.5 Z"/></g>
<g><path style="opacity:1" fill="#7873c0" d="M 269.5,72.5 C 269.5,74.5 269.5,76.5 269.5,78.5C 272.833,78.5 276.167,78.5 279.5,78.5C 279.205,76.2646 279.539,74.2646 280.5,72.5C 280.5,74.8333 280.5,77.1667 280.5,79.5C 276.167,79.5 271.833,79.5 267.5,79.5C 267.41,76.8478 268.076,74.5145 269.5,72.5 Z"/></g>
<g><path style="opacity:1" fill="#bec6f4" d="M 255.5,72.5 C 255.5,73.1667 255.5,73.8333 255.5,74.5C 254.38,77.3871 253.38,80.3871 252.5,83.5C 251.676,85.4206 250.343,86.754 248.5,87.5C 248.893,85.7162 249.559,84.0495 250.5,82.5C 252.266,79.2592 253.933,75.9259 255.5,72.5 Z"/></g>
<g><path style="opacity:1" fill="#4e48c9" d="M 253.5,71.5 C 252.388,75.1177 251.388,78.7843 250.5,82.5C 249.559,84.0495 248.893,85.7162 248.5,87.5C 247.094,87.9731 246.427,88.9731 246.5,90.5C 244.632,91.2632 242.965,92.2632 241.5,93.5C 237.566,94.3597 233.566,94.693 229.5,94.5C 229.216,92.5853 229.549,90.9187 230.5,89.5C 230.5,90.8333 230.5,92.1667 230.5,93.5C 235.292,93.1055 239.958,92.1055 244.5,90.5C 244.5,89.1667 244.5,87.8333 244.5,86.5C 245.5,86.5 246.5,86.5 247.5,86.5C 247.655,82.3713 248.488,78.3713 250,74.5C 251.359,73.635 252.526,72.635 253.5,71.5 Z"/></g>
<g><path style="opacity:1" fill="#999ce5" d="M 248.5,87.5 C 248.573,89.0269 247.906,90.0269 246.5,90.5C 246.427,88.9731 247.094,87.9731 248.5,87.5 Z"/></g>
<g><path style="opacity:1" fill="#5045de" d="M 256.5,61.5 C 256.5,63.5 256.5,65.5 256.5,67.5C 255.857,69.0764 254.857,70.4097 253.5,71.5C 252.526,72.635 251.359,73.635 250,74.5C 248.488,78.3713 247.655,82.3713 247.5,86.5C 246.5,86.5 245.5,86.5 244.5,86.5C 244.5,87.8333 244.5,89.1667 244.5,90.5C 239.958,92.1055 235.292,93.1055 230.5,93.5C 230.5,92.1667 230.5,90.8333 230.5,89.5C 234.516,89.7129 238.35,89.0462 242,87.5C 243.011,82.639 244.178,77.8057 245.5,73C 245.085,69.8943 244.085,69.7276 242.5,72.5C 240.927,68.915 241.594,65.915 244.5,63.5C 244.833,63.5 245.167,63.5 245.5,63.5C 245.5,64.8333 245.5,66.1667 245.5,67.5C 248.044,67.8957 250.211,67.229 252,65.5C 252.994,60.882 253.494,56.2153 253.5,51.5C 254.5,51.5 255.5,51.5 256.5,51.5C 256.5,50.1667 256.5,48.8333 256.5,47.5C 257.978,47.238 259.311,47.5713 260.5,48.5C 259.939,51.9902 258.439,54.9902 256,57.5C 255.235,59.0657 255.402,60.3991 256.5,61.5 Z"/></g>
<g><path style="opacity:1" fill="#786bc3" d="M 239.5,84.5 C 239.144,85.8699 238.31,86.8699 237,87.5C 234.654,87.9902 232.487,88.6568 230.5,89.5C 229.549,90.9187 229.216,92.5853 229.5,94.5C 233.566,94.693 237.566,94.3597 241.5,93.5C 241.167,94.1667 240.833,94.8333 240.5,95.5C 236.5,95.5 232.5,95.5 228.5,95.5C 228.5,92.5 228.5,89.5 228.5,86.5C 232.413,86.8132 236.079,86.1466 239.5,84.5 Z"/></g>
<g><path style="opacity:1" fill="#b8b9eb" d="M 246.5,90.5 C 245.362,93.0862 243.362,94.7529 240.5,95.5C 240.833,94.8333 241.167,94.1667 241.5,93.5C 242.965,92.2632 244.632,91.2632 246.5,90.5 Z"/></g>
</svg>
